<?xml version="1.0" encoding="UTF-8"?>
<!DOCTYPE svg PUBLIC "-//W3C//DTD SVG 1.1//EN" "http://www.w3.org/Graphics/SVG/1.1/DTD/svg11.dtd">
<svg xmlns="http://www.w3.org/2000/svg" version="1.1" width="384px" height="384px" style="shape-rendering:geometricPrecision; text-rendering:geometricPrecision; image-rendering:optimizeQuality; fill-rule:evenodd; clip-rule:evenodd" xmlns:xlink="http://www.w3.org/1999/xlink">
<g><path style="opacity:0.078" fill="#fcc7b6" d="M 162.5,-0.5 C 172.167,-0.5 181.833,-0.5 191.5,-0.5C 191.5,-0.166667 191.5,0.166667 191.5,0.5C 182.651,0.173642 173.984,0.506975 165.5,1.5C 162.813,1.33591 160.146,1.50258 157.5,2C 156.584,2.27842 155.918,2.77842 155.5,3.5C 153.5,3.5 151.5,3.5 149.5,3.5C 153.724,1.75819 158.058,0.424853 162.5,-0.5 Z"/></g>
<g><path style="opacity:0.788" fill="#f49273" d="M 165.5,1.5 C 162.373,2.58075 159.04,3.24742 155.5,3.5C 155.918,2.77842 156.584,2.27842 157.5,2C 160.146,1.50258 162.813,1.33591 165.5,1.5 Z"/></g>
<g><path style="opacity:1" fill="#f2501e" d="M 190.5,25.5 C 185.77,25.2834 181.103,25.6167 176.5,26.5C 169.251,26.6784 162.251,27.6784 155.5,29.5C 155.167,29.5 154.833,29.5 154.5,29.5C 151.848,29.4095 149.515,30.0762 147.5,31.5C 105.885,43.5676 73.3851,67.901 50,104.5C 48.878,106.407 48.0447,108.407 47.5,110.5C 46.0937,110.973 45.427,111.973 45.5,113.5C 45.1667,114.167 44.8333,114.833 44.5,115.5C 43.5082,117.456 42.5082,119.456 41.5,121.5C 39.3582,124.8 38.0249,128.467 37.5,132.5C 35.6197,134.755 34.6197,137.422 34.5,140.5C 32.9261,142.102 32.2594,144.102 32.5,146.5C 31.2863,150.451 30.2863,154.451 29.5,158.5C 27.9462,162.567 27.2796,166.9 27.5,171.5C 26.5422,177.744 26.2088,184.077 26.5,190.5C 17.8333,190.5 9.16667,190.5 0.5,190.5C 0.923147,177.713 2.25648,165.047 4.5,152.5C 6.85613,137.407 11.5228,123.073 18.5,109.5C 23.384,102.222 27.7173,94.5554 31.5,86.5C 37.7572,78.3987 44.2572,70.3987 51,62.5C 61.0993,52.5587 71.5993,43.2254 82.5,34.5C 84.1789,34.1077 85.8455,33.6077 87.5,33C 89.6139,30.7203 91.9472,28.887 94.5,27.5C 98.8208,24.8525 102.821,21.8525 106.5,18.5C 107.833,18.5 109.167,18.5 110.5,18.5C 112.544,17.4918 114.544,16.4918 116.5,15.5C 118.509,13.9348 120.843,12.9348 123.5,12.5C 126.916,12.4725 129.916,11.4725 132.5,9.5C 136.144,8.68491 139.811,7.85157 143.5,7C 144.056,6.61742 144.389,6.11742 144.5,5.5C 144.833,5.5 145.167,5.5 145.5,5.5C 148.807,4.9492 152.14,4.61587 155.5,4.5C 167.086,2.59358 178.752,1.59358 190.5,1.5C 190.5,9.5 190.5,17.5 190.5,25.5 Z"/></g>
<g><path style="opacity:1" fill="#80bc08" d="M 227.5,3.5 C 238.785,5.05136 249.785,7.8847 260.5,12C 289.653,24.9021 315.32,42.7355 337.5,65.5C 338.757,68.4274 340.757,70.7607 343.5,72.5C 345.062,76.3918 347.395,79.7251 350.5,82.5C 350.343,83.8734 350.51,85.2068 351,86.5C 356.524,94.8986 362.024,103.232 367.5,111.5C 367.5,111.833 367.5,112.167 367.5,112.5C 370.027,119.413 372.36,126.413 374.5,133.5C 376.317,141.42 377.817,149.42 379,157.5C 379.278,158.416 379.778,159.082 380.5,159.5C 381.903,163.066 382.903,166.733 383.5,170.5C 383.5,177.5 383.5,184.5 383.5,191.5C 374.833,191.5 366.167,191.5 357.5,191.5C 357.807,180.665 356.807,169.998 354.5,159.5C 354.59,156.848 353.924,154.515 352.5,152.5C 351.579,146.19 349.912,140.19 347.5,134.5C 328.679,86.3455 295.012,53.3455 246.5,35.5C 243.199,33.4155 239.532,32.0822 235.5,31.5C 227.239,29.5118 218.905,27.8451 210.5,26.5C 205.097,24.7949 199.43,24.1282 193.5,24.5C 193.5,16.8333 193.5,9.16667 193.5,1.5C 204.824,2.27147 216.158,2.93814 227.5,3.5 Z"/></g>
<g><path style="opacity:0.978" fill="#a1c242" d="M 191.5,-0.5 C 200.833,-0.5 210.167,-0.5 219.5,-0.5C 219.842,0.338246 220.508,0.67158 221.5,0.5C 223.371,1.79722 225.371,2.79722 227.5,3.5C 216.158,2.93814 204.824,2.27147 193.5,1.5C 193.5,9.16667 193.5,16.8333 193.5,24.5C 199.43,24.1282 205.097,24.7949 210.5,26.5C 203.978,26.8235 197.645,26.4902 191.5,25.5C 191.5,17.1667 191.5,8.83333 191.5,0.5C 191.5,0.166667 191.5,-0.166667 191.5,-0.5 Z"/></g>
<g><path style="opacity:0.996" fill="#e6632e" d="M 191.5,0.5 C 191.5,8.83333 191.5,17.1667 191.5,25.5C 191.167,25.5 190.833,25.5 190.5,25.5C 190.5,17.5 190.5,9.5 190.5,1.5C 178.752,1.59358 167.086,2.59358 155.5,4.5C 155.5,4.16667 155.5,3.83333 155.5,3.5C 159.04,3.24742 162.373,2.58075 165.5,1.5C 173.984,0.506975 182.651,0.173642 191.5,0.5 Z"/></g>
<g><path style="opacity:0.753" fill="#f18968" d="M 148.5,3.5 C 148.833,3.5 149.167,3.5 149.5,3.5C 151.5,3.5 153.5,3.5 155.5,3.5C 155.5,3.83333 155.5,4.16667 155.5,4.5C 152.14,4.61587 148.807,4.9492 145.5,5.5C 146.5,4.83333 147.5,4.16667 148.5,3.5 Z"/></g>
<g><path style="opacity:0.173" fill="#f9c3b2" d="M 148.5,3.5 C 147.5,4.16667 146.5,4.83333 145.5,5.5C 145.167,5.5 144.833,5.5 144.5,5.5C 142.236,6.21862 139.903,6.55195 137.5,6.5C 140.907,4.92569 144.573,3.92569 148.5,3.5 Z"/></g>
<g><path style="opacity:0.827" fill="#f07e5c" d="M 144.5,5.5 C 144.389,6.11742 144.056,6.61742 143.5,7C 139.811,7.85157 136.144,8.68491 132.5,9.5C 134.072,8.31271 135.739,7.31271 137.5,6.5C 139.903,6.55195 142.236,6.21862 144.5,5.5 Z"/></g>
<g><path style="opacity:0.208" fill="#fdc7b4" d="M 137.5,6.5 C 135.739,7.31271 134.072,8.31271 132.5,9.5C 129.833,9.83333 127.167,10.1667 124.5,10.5C 128.502,8.39024 132.835,7.0569 137.5,6.5 Z"/></g>
<g><path style="opacity:0.945" fill="#ef7952" d="M 132.5,9.5 C 129.916,11.4725 126.916,12.4725 123.5,12.5C 123.833,11.8333 124.167,11.1667 124.5,10.5C 127.167,10.1667 129.833,9.83333 132.5,9.5 Z"/></g>
<g><path style="opacity:0.318" fill="#fbc4ae" d="M 124.5,10.5 C 124.167,11.1667 123.833,11.8333 123.5,12.5C 120.843,12.9348 118.509,13.9348 116.5,15.5C 115.167,15.5 113.833,15.5 112.5,15.5C 116.203,13.3213 120.203,11.6546 124.5,10.5 Z"/></g>
<g><path style="opacity:0.318" fill="#d3e9a5" d="M 221.5,0.5 C 268.268,8.20515 306.934,29.8718 337.5,65.5C 315.32,42.7355 289.653,24.9021 260.5,12C 249.785,7.8847 238.785,5.05136 227.5,3.5C 225.371,2.79722 223.371,1.79722 221.5,0.5 Z"/></g>
<g><path style="opacity:0.749" fill="#f1805c" d="M 112.5,15.5 C 113.833,15.5 115.167,15.5 116.5,15.5C 114.544,16.4918 112.544,17.4918 110.5,18.5C 111.167,17.5 111.833,16.5 112.5,15.5 Z"/></g>
<g><path style="opacity:0.537" fill="#f7b7a5" d="M 112.5,15.5 C 111.833,16.5 111.167,17.5 110.5,18.5C 109.167,18.5 107.833,18.5 106.5,18.5C 108.181,16.9925 110.181,15.9925 112.5,15.5 Z"/></g>
<g><path style="opacity:1" fill="#f7d0bf" d="M 176.5,26.5 C 169.736,28.2354 162.736,29.2354 155.5,29.5C 162.251,27.6784 169.251,26.6784 176.5,26.5 Z"/></g>
<g><path style="opacity:1" fill="#fbfdfd" d="M 190.5,25.5 C 190.833,25.5 191.167,25.5 191.5,25.5C 197.645,26.4902 203.978,26.8235 210.5,26.5C 218.905,27.8451 227.239,29.5118 235.5,31.5C 235.611,32.1174 235.944,32.6174 236.5,33C 239.824,33.9428 243.157,34.7761 246.5,35.5C 295.012,53.3455 328.679,86.3455 347.5,134.5C 348.421,140.81 350.088,146.81 352.5,152.5C 352.41,155.152 353.076,157.485 354.5,159.5C 356.807,169.998 357.807,180.665 357.5,191.5C 355.2,245.935 332.866,290.102 290.5,324C 282.839,329.515 274.839,334.349 266.5,338.5C 263.702,339.65 261.035,340.983 258.5,342.5C 250.44,345.518 242.44,348.518 234.5,351.5C 229.814,352.037 225.147,352.704 220.5,353.5C 213.156,353.779 205.823,354.279 198.5,355C 197.944,355.383 197.611,355.883 197.5,356.5C 195.5,356.5 193.5,356.5 191.5,356.5C 125.827,354.259 76.9938,324.592 45,267.5C 42.1294,260.438 39.296,253.438 36.5,246.5C 35.871,243.603 34.871,240.936 33.5,238.5C 29.3576,223.452 27.0243,208.119 26.5,192.5C 26.5,192.167 26.5,191.833 26.5,191.5C 26.5,191.167 26.5,190.833 26.5,190.5C 26.2088,184.077 26.5422,177.744 27.5,171.5C 29.0538,167.433 29.7204,163.1 29.5,158.5C 30.2863,154.451 31.2863,150.451 32.5,146.5C 34.0739,144.898 34.7406,142.898 34.5,140.5C 34.6197,137.422 35.6197,134.755 37.5,132.5C 40.1905,129.453 41.5238,125.787 41.5,121.5C 43.9754,120.313 44.9754,118.313 44.5,115.5C 44.8333,114.833 45.1667,114.167 45.5,113.5C 46.9063,113.027 47.573,112.027 47.5,110.5C 48.0447,108.407 48.878,106.407 50,104.5C 73.3851,67.901 105.885,43.5676 147.5,31.5C 150.152,31.5905 152.485,30.9238 154.5,29.5C 154.833,29.5 155.167,29.5 155.5,29.5C 162.736,29.2354 169.736,28.2354 176.5,26.5C 181.103,25.6167 185.77,25.2834 190.5,25.5 Z"/></g>
<g><path style="opacity:1" fill="#efa388" d="M 154.5,29.5 C 152.485,30.9238 150.152,31.5905 147.5,31.5C 149.515,30.0762 151.848,29.4095 154.5,29.5 Z"/></g>
<g><path style="opacity:0.996" fill="#ee6941" d="M 94.5,27.5 C 91.9472,28.887 89.6139,30.7203 87.5,33C 85.8455,33.6077 84.1789,34.1077 82.5,34.5C 84.6403,31.7225 87.307,29.5559 90.5,28C 91.7932,27.51 93.1266,27.3433 94.5,27.5 Z"/></g>
<g><path style="opacity:0.996" fill="#e1efbc" d="M 235.5,31.5 C 239.532,32.0822 243.199,33.4155 246.5,35.5C 243.157,34.7761 239.824,33.9428 236.5,33C 235.944,32.6174 235.611,32.1174 235.5,31.5 Z"/></g>
<g><path style="opacity:0.259" fill="#deedbb" d="M 337.5,65.5 C 340.243,67.2393 342.243,69.5726 343.5,72.5C 340.757,70.7607 338.757,68.4274 337.5,65.5 Z"/></g>
<g><path style="opacity:0.965" fill="#ef7550" d="M 82.5,34.5 C 71.5993,43.2254 61.0993,52.5587 51,62.5C 44.2572,70.3987 37.7572,78.3987 31.5,86.5C 32.1667,84.8333 32.8333,83.1667 33.5,81.5C 42.2254,70.5993 51.5587,60.0993 61.5,50C 68.1147,44.2054 75.1147,39.0388 82.5,34.5 Z"/></g>
<g><path style="opacity:0.22" fill="#fcc1ad" d="M 106.5,18.5 C 102.821,21.8525 98.8208,24.8525 94.5,27.5C 93.1266,27.3433 91.7932,27.51 90.5,28C 87.307,29.5559 84.6403,31.7225 82.5,34.5C 75.1147,39.0388 68.1147,44.2054 61.5,50C 51.5587,60.0993 42.2254,70.5993 33.5,81.5C 51.9969,53.6651 76.3302,32.6651 106.5,18.5 Z"/></g>
<g><path style="opacity:1" fill="#425dc2" d="M 205.5,77.5 C 201.102,77.2941 196.768,77.6274 192.5,78.5C 192.611,77.8826 192.944,77.3826 193.5,77C 197.756,75.0588 201.756,75.2254 205.5,77.5 Z"/></g>
<g><path style="opacity:0.247" fill="#d8edb0" d="M 343.5,72.5 C 346.605,75.2749 348.938,78.6082 350.5,82.5C 347.395,79.7251 345.062,76.3918 343.5,72.5 Z"/></g>
<g><path style="opacity:1" fill="#5270c5" d="M 192.5,78.5 C 191.167,80.5 189.5,82.1667 187.5,83.5C 188.167,80.8333 189.833,79.1667 192.5,78.5 Z"/></g>
<g><path style="opacity:0.627" fill="#f8a389" d="M 33.5,81.5 C 32.8333,83.1667 32.1667,84.8333 31.5,86.5C 27.7173,94.5554 23.384,102.222 18.5,109.5C 18.5,108.5 18.5,107.5 18.5,106.5C 22.2829,97.3957 27.2829,89.0623 33.5,81.5 Z"/></g>
<g><path style="opacity:1" fill="#3e5bc0" d="M 212.5,81.5 C 214.306,83.0894 215.639,85.0894 216.5,87.5C 219.086,88.48 221.753,88.8134 224.5,88.5C 224.5,88.8333 224.5,89.1667 224.5,89.5C 217.017,91.6221 213.017,88.9554 212.5,81.5 Z"/></g>
<g><path style="opacity:0.996" fill="#8eafda" d="M 224.5,89.5 C 224.5,89.1667 224.5,88.8333 224.5,88.5C 226.698,88.1201 228.365,88.7868 229.5,90.5C 227.883,89.962 226.216,89.6287 224.5,89.5 Z"/></g>
<g><path style="opacity:1" fill="#2e6ec4" d="M 187.5,83.5 C 186.577,96.4701 186.244,109.47 186.5,122.5C 185.596,121.791 185.263,120.791 185.5,119.5C 185.209,107.783 185.542,96.1162 186.5,84.5C 186.5,83.8333 186.833,83.5 187.5,83.5 Z"/></g>
<g><path style="opacity:0.573" fill="#cae292" d="M 350.5,82.5 C 354.47,87.0836 357.97,92.0836 361,97.5C 363.468,102.099 365.635,106.766 367.5,111.5C 362.024,103.232 356.524,94.8986 351,86.5C 350.51,85.2068 350.343,83.8734 350.5,82.5 Z"/></g>
<g><path style="opacity:1" fill="#79aacb" d="M 186.5,84.5 C 185.542,96.1162 185.209,107.783 185.5,119.5C 184.341,108.341 184.174,97.0076 185,85.5C 185.383,84.944 185.883,84.6107 186.5,84.5 Z"/></g>
<g><path style="opacity:1" fill="#99b3df" d="M 243.5,103.5 C 245.698,103.12 247.365,103.787 248.5,105.5C 246.597,105.204 244.93,104.537 243.5,103.5 Z"/></g>
<g><path style="opacity:1" fill="#3d48ca" d="M 205.5,77.5 C 208.614,77.5548 210.948,78.8881 212.5,81.5C 213.017,88.9554 217.017,91.6221 224.5,89.5C 226.216,89.6287 227.883,89.962 229.5,90.5C 235.475,93.4768 240.142,97.8101 243.5,103.5C 244.93,104.537 246.597,105.204 248.5,105.5C 253.352,107.683 256.352,111.349 257.5,116.5C 257.662,118.527 257.495,120.527 257,122.5C 255.604,125.064 254.437,127.731 253.5,130.5C 250.097,135.234 245.764,138.901 240.5,141.5C 238.973,141.427 237.973,142.094 237.5,143.5C 237.167,143.5 236.833,143.5 236.5,143.5C 234.833,143.5 233.167,143.5 231.5,143.5C 231.5,140.833 231.5,138.167 231.5,135.5C 232.833,134.833 233.833,133.833 234.5,132.5C 235.807,130.777 235.807,128.943 234.5,127C 230.781,128.435 226.781,129.269 222.5,129.5C 222.167,129.5 221.833,129.5 221.5,129.5C 217.169,127.399 215.336,128.733 216,133.5C 216.383,134.056 216.883,134.389 217.5,134.5C 218.99,136.28 220.99,136.946 223.5,136.5C 224.722,142.166 223.055,146.666 218.5,150C 215.008,152.561 211.341,153.061 207.5,151.5C 207.027,150.094 206.027,149.427 204.5,149.5C 203.089,147.086 201.089,145.419 198.5,144.5C 197.5,142.833 196.167,141.5 194.5,140.5C 194.573,138.973 193.906,137.973 192.5,137.5C 189.997,132.676 187.997,127.676 186.5,122.5C 186.244,109.47 186.577,96.4701 187.5,83.5C 189.5,82.1667 191.167,80.5 192.5,78.5C 196.768,77.6274 201.102,77.2941 205.5,77.5 Z"/></g>
<g><path style="opacity:1" fill="#435dbe" d="M 214.5,106.5 C 215.404,107.209 215.737,108.209 215.5,109.5C 209.833,109.5 204.167,109.5 198.5,109.5C 198.281,108.325 198.614,107.325 199.5,106.5C 204.53,107.829 209.53,107.829 214.5,106.5 Z"/></g>
<g><path style="opacity:1" fill="#6e9ac9" d="M 215.5,97.5 C 216.833,101.5 216.833,105.5 215.5,109.5C 215.737,108.209 215.404,107.209 214.5,106.5C 214.5,104.833 214.5,103.167 214.5,101.5C 215.434,100.432 215.768,99.099 215.5,97.5 Z"/></g>
<g><path style="opacity:1" fill="#446bba" d="M 196.5,96.5 C 194.748,100.227 194.081,104.227 194.5,108.5C 193.359,105.36 193.192,102.027 194,98.5C 194.708,97.6195 195.542,96.9528 196.5,96.5 Z"/></g>
<g><path style="opacity:1" fill="#526ec8" d="M 217.5,96.5 C 218.5,96.5 219.5,96.5 220.5,96.5C 220.5,100.167 220.5,103.833 220.5,107.5C 220.5,108.167 220.167,108.5 219.5,108.5C 219.849,104.258 219.183,100.258 217.5,96.5 Z"/></g>
<g><path style="opacity:1" fill="#aacce2" d="M 216.5,95.5 C 217.167,95.5 217.5,95.8333 217.5,96.5C 219.183,100.258 219.849,104.258 219.5,108.5C 217.461,109.911 216.461,111.911 216.5,114.5C 217.822,114.33 218.989,114.663 220,115.5C 220.044,118.475 219.877,121.475 219.5,124.5C 219.167,124.5 218.833,124.5 218.5,124.5C 210.414,124.801 202.414,124.467 194.5,123.5C 193.992,120.824 193.825,118.157 194,115.5C 194.816,114.177 195.983,113.511 197.5,113.5C 198.959,113.567 200.292,113.234 201.5,112.5C 204.953,112.481 208.62,112.814 212.5,113.5C 212.5,112.5 212.5,111.5 212.5,110.5C 213.791,110.737 214.791,110.404 215.5,109.5C 216.833,105.5 216.833,101.5 215.5,97.5C 214.624,97.6309 213.957,97.2975 213.5,96.5C 214.325,95.6143 215.325,95.281 216.5,95.5 Z"/></g>
<g><path style="opacity:1" fill="#3860be" d="M 205.5,90.5 C 206.919,89.5489 208.585,89.2155 210.5,89.5C 210.5,91.1667 210.5,92.8333 210.5,94.5C 212.735,94.2053 214.735,94.5386 216.5,95.5C 215.325,95.281 214.325,95.6143 213.5,96.5C 213.957,97.2975 214.624,97.6309 215.5,97.5C 215.768,99.099 215.434,100.432 214.5,101.5C 214.389,100.883 214.056,100.383 213.5,100C 209.167,99.3333 204.833,99.3333 200.5,100C 200,100.5 199.5,101 199,101.5C 198.51,100.207 198.343,98.8734 198.5,97.5C 202.884,97.8256 207.217,97.4922 211.5,96.5C 209.896,94.8211 209.229,92.8211 209.5,90.5C 208.167,90.5 206.833,90.5 205.5,90.5 Z"/></g>
<g><path style="opacity:1" fill="#9abfdc" d="M 205.5,90.5 C 206.833,90.5 208.167,90.5 209.5,90.5C 209.229,92.8211 209.896,94.8211 211.5,96.5C 207.217,97.4922 202.884,97.8256 198.5,97.5C 198.343,98.8734 198.51,100.207 199,101.5C 199.5,101 200,100.5 200.5,100C 204.833,99.3333 209.167,99.3333 213.5,100C 214.056,100.383 214.389,100.883 214.5,101.5C 214.5,103.167 214.5,104.833 214.5,106.5C 209.53,107.829 204.53,107.829 199.5,106.5C 198.614,107.325 198.281,108.325 198.5,109.5C 204.167,109.5 209.833,109.5 215.5,109.5C 214.791,110.404 213.791,110.737 212.5,110.5C 207.305,110.179 202.305,110.513 197.5,111.5C 196.272,110.694 195.272,109.694 194.5,108.5C 194.081,104.227 194.748,100.227 196.5,96.5C 196.5,96.1667 196.5,95.8333 196.5,95.5C 199.167,95.5 201.833,95.5 204.5,95.5C 204.5,94.1667 204.5,92.8333 204.5,91.5C 204.5,90.8333 204.833,90.5 205.5,90.5 Z"/></g>
<g><path style="opacity:1" fill="#4974b4" d="M 205.5,101.5 C 205.5,102.833 205.5,104.167 205.5,105.5C 207.099,105.768 208.432,105.434 209.5,104.5C 210.043,104.56 210.376,104.893 210.5,105.5C 208.604,106.466 206.604,106.799 204.5,106.5C 204.216,104.585 204.549,102.919 205.5,101.5 Z"/></g>
<g><path style="opacity:1" fill="#344fc6" d="M 205.5,101.5 C 206.833,101.5 208.167,101.5 209.5,101.5C 209.5,102.5 209.5,103.5 209.5,104.5C 208.432,105.434 207.099,105.768 205.5,105.5C 205.5,104.167 205.5,102.833 205.5,101.5 Z"/></g>
<g><path style="opacity:1" fill="#3d63c1" d="M 204.5,91.5 C 204.5,92.8333 204.5,94.1667 204.5,95.5C 201.833,95.5 199.167,95.5 196.5,95.5C 198.607,94.5318 200.941,94.1984 203.5,94.5C 203.263,93.209 203.596,92.209 204.5,91.5 Z"/></g>
<g><path style="opacity:1" fill="#3d4ec7" d="M 235.5,111.5 C 235.5,111.833 235.5,112.167 235.5,112.5C 234.833,113.167 234.167,113.833 233.5,114.5C 232.662,114.158 232.328,113.492 232.5,112.5C 231.074,111.659 229.74,110.659 228.5,109.5C 227.811,108.226 226.977,108.226 226,109.5C 224.882,111.765 224.049,114.099 223.5,116.5C 222.262,119.261 220.928,121.928 219.5,124.5C 219.877,121.475 220.044,118.475 220,115.5C 218.989,114.663 217.822,114.33 216.5,114.5C 216.461,111.911 217.461,109.911 219.5,108.5C 220.167,108.5 220.5,108.167 220.5,107.5C 222.199,107.66 223.866,107.494 225.5,107C 223.431,106.676 223.098,105.842 224.5,104.5C 226.045,103.548 227.712,103.215 229.5,103.5C 229.5,104.5 229.5,105.5 229.5,106.5C 230.552,106.351 231.552,106.517 232.5,107C 231.289,107.893 231.289,108.726 232.5,109.5C 235.849,108.17 236.182,108.67 233.5,111C 234.094,111.464 234.761,111.631 235.5,111.5 Z"/></g>
<g><path style="opacity:1" fill="#ecf5f8" d="M 197.5,111.5 C 202.305,110.513 207.305,110.179 212.5,110.5C 212.5,111.5 212.5,112.5 212.5,113.5C 208.62,112.814 204.953,112.481 201.5,112.5C 200.432,111.566 199.099,111.232 197.5,111.5 Z"/></g>
<g><path style="opacity:0.996" fill="#f3ab93" d="M 47.5,110.5 C 47.573,112.027 46.9063,113.027 45.5,113.5C 45.427,111.973 46.0937,110.973 47.5,110.5 Z"/></g>
<g><path style="opacity:1" fill="#4f86bd" d="M 197.5,111.5 C 199.099,111.232 200.432,111.566 201.5,112.5C 200.292,113.234 198.959,113.567 197.5,113.5C 197.5,112.833 197.5,112.167 197.5,111.5 Z"/></g>
<g><path style="opacity:1" fill="#6697ca" d="M 228.5,109.5 C 229.74,110.659 231.074,111.659 232.5,112.5C 230.847,112.66 229.514,113.326 228.5,114.5C 227.833,114.5 227.167,114.5 226.5,114.5C 227.441,112.95 228.107,111.284 228.5,109.5 Z"/></g>
<g><path style="opacity:1" fill="#b6d1eb" d="M 228.5,109.5 C 228.107,111.284 227.441,112.95 226.5,114.5C 226.027,115.906 225.027,116.573 223.5,116.5C 224.049,114.099 224.882,111.765 226,109.5C 226.977,108.226 227.811,108.226 228.5,109.5 Z"/></g>
<g><path style="opacity:1" fill="#d3e8f5" d="M 232.5,112.5 C 232.328,113.492 232.662,114.158 233.5,114.5C 232.5,115.167 231.5,115.833 230.5,116.5C 229.833,115.833 229.167,115.167 228.5,114.5C 229.514,113.326 230.847,112.66 232.5,112.5 Z"/></g>
<g><path style="opacity:1" fill="#3f70bc" d="M 200.5,122.5 C 198.631,120.365 197.964,117.698 198.5,114.5C 204.206,114.171 209.872,114.505 215.5,115.5C 219.335,116.996 219.335,117.996 215.5,118.5C 215.762,119.978 215.429,121.311 214.5,122.5C 213.534,120.604 213.201,118.604 213.5,116.5C 209.167,116.5 204.833,116.5 200.5,116.5C 200.5,118.5 200.5,120.5 200.5,122.5 Z"/></g>
<g><path style="opacity:1" fill="#618fc8" d="M 235.5,112.5 C 235.771,114.38 235.104,115.713 233.5,116.5C 233.167,116.5 232.833,116.5 232.5,116.5C 231.833,116.5 231.167,116.5 230.5,116.5C 231.5,115.833 232.5,115.167 233.5,114.5C 234.167,113.833 234.833,113.167 235.5,112.5 Z"/></g>
<g><path style="opacity:1" fill="#c7ddf1" d="M 235.5,111.5 C 236.791,111.263 237.791,111.596 238.5,112.5C 237.758,114.426 236.758,116.259 235.5,118C 234.184,118.528 233.517,118.028 233.5,116.5C 235.104,115.713 235.771,114.38 235.5,112.5C 235.5,112.167 235.5,111.833 235.5,111.5 Z"/></g>
<g><path style="opacity:1" fill="#5474c9" d="M 226.5,114.5 C 227.167,114.5 227.833,114.5 228.5,114.5C 229.167,115.167 229.833,115.833 230.5,116.5C 228.452,115.935 226.119,115.935 223.5,116.5C 225.027,116.573 226.027,115.906 226.5,114.5 Z"/></g>
<g><path style="opacity:1" fill="#4876c3" d="M 195.5,116.5 C 197.337,116.639 197.67,117.306 196.5,118.5C 195.702,118.043 195.369,117.376 195.5,116.5 Z"/></g>
<g><path style="opacity:1" fill="#bed8e7" d="M 245.5,116.5 C 245.5,118.5 244.5,119.5 242.5,119.5C 241.833,119.5 241.167,119.5 240.5,119.5C 240.238,118.022 240.571,116.689 241.5,115.5C 242.736,116.246 244.07,116.579 245.5,116.5 Z"/></g>
<g><path style="opacity:1" fill="#f8ccbb" d="M 44.5,115.5 C 44.9754,118.313 43.9754,120.313 41.5,121.5C 42.5082,119.456 43.5082,117.456 44.5,115.5 Z"/></g>
<g><path style="opacity:1" fill="#4155c4" d="M 238.5,112.5 C 241.049,114.561 244.049,115.561 247.5,115.5C 247.5,115.833 247.5,116.167 247.5,116.5C 246.833,116.5 246.167,116.5 245.5,116.5C 244.07,116.579 242.736,116.246 241.5,115.5C 240.571,116.689 240.238,118.022 240.5,119.5C 239.265,119.721 238.265,120.388 237.5,121.5C 236.808,120.975 236.308,120.308 236,119.5C 234.989,120.337 233.822,120.67 232.5,120.5C 232.5,119.167 232.5,117.833 232.5,116.5C 232.833,116.5 233.167,116.5 233.5,116.5C 233.517,118.028 234.184,118.528 235.5,118C 236.758,116.259 237.758,114.426 238.5,112.5 Z"/></g>
<g><path style="opacity:1" fill="#5e97c8" d="M 245.5,116.5 C 246.167,116.5 246.833,116.5 247.5,116.5C 247.296,118.685 246.63,120.685 245.5,122.5C 244.5,121.5 243.5,120.5 242.5,119.5C 244.5,119.5 245.5,118.5 245.5,116.5 Z"/></g>
<g><path style="opacity:1" fill="#c3dbeb" d="M 247.5,115.5 C 249.948,115.01 251.615,115.843 252.5,118C 250.888,119.482 249.888,121.315 249.5,123.5C 247.901,123.768 246.568,123.434 245.5,122.5C 246.63,120.685 247.296,118.685 247.5,116.5C 247.5,116.167 247.5,115.833 247.5,115.5 Z"/></g>
<g><path style="opacity:1" fill="#d5e8ec" d="M 200.5,122.5 C 202.71,121.545 203.043,120.045 201.5,118C 202.448,117.517 203.448,117.351 204.5,117.5C 204.833,124.167 205.167,124.167 205.5,117.5C 206.5,117.5 207.5,117.5 208.5,117.5C 208.261,119.467 208.594,121.301 209.5,123C 206.304,123.805 203.304,123.638 200.5,122.5 Z"/></g>
<g><path style="opacity:1" fill="#2a67c1" d="M 194.5,123.5 C 202.414,124.467 210.414,124.801 218.5,124.5C 214.681,125.166 210.681,125.499 206.5,125.5C 202.107,125.491 198.107,124.824 194.5,123.5 Z"/></g>
<g><path style="opacity:1" fill="#c8daed" d="M 257.5,116.5 C 259.686,122.235 258.352,126.902 253.5,130.5C 254.437,127.731 255.604,125.064 257,122.5C 257.495,120.527 257.662,118.527 257.5,116.5 Z"/></g>
<g><path style="opacity:0.118" fill="#d5eaa9" d="M 367.5,112.5 C 371.623,120.428 374.956,128.761 377.5,137.5C 376.143,136.41 375.143,135.076 374.5,133.5C 372.36,126.413 370.027,119.413 367.5,112.5 Z"/></g>
<g><path style="opacity:1" fill="#1fa8ca" d="M 186.5,140.5 C 185.883,140.389 185.383,140.056 185,139.5C 184.17,165.67 184.337,191.67 185.5,217.5C 185.833,217.5 186.167,217.5 186.5,217.5C 186.5,217.833 186.5,218.167 186.5,218.5C 184.839,225 185.672,231.333 189,237.5C 189.816,238.823 190.983,239.489 192.5,239.5C 226.331,240.332 260.331,240.832 294.5,241C 295.984,241.662 297.317,242.496 298.5,243.5C 299.649,258.759 299.816,274.092 299,289.5C 297.833,290.667 296.667,291.833 295.5,293C 291.833,293.333 288.167,293.667 284.5,294C 281.968,296.415 278.968,297.081 275.5,296C 275.455,292.468 275.455,288.968 275.5,285.5C 279.37,283.859 282.703,284.526 285.5,287.5C 285.5,288.5 285.5,289.5 285.5,290.5C 287.488,290.173 289.488,289.84 291.5,289.5C 292.994,289.709 294.161,290.376 295,291.5C 295.828,276.328 295.661,261.328 294.5,246.5C 260.24,245.507 225.906,245.174 191.5,245.5C 187.215,243.378 184.048,240.045 182,235.5C 180.826,230.25 180.159,224.916 180,219.5C 176.922,226.746 171.755,231.746 164.5,234.5C 159.562,235.392 154.562,235.726 149.5,235.5C 140.05,232.548 134.216,226.215 132,216.5C 129.643,199.022 137.143,188.689 154.5,185.5C 158.706,185.68 162.706,186.68 166.5,188.5C 169.427,187.812 170.094,186.145 168.5,183.5C 148.36,176.318 134.193,182.651 126,202.5C 125.681,209.261 125.515,215.928 125.5,222.5C 115.585,217.842 110.585,210.009 110.5,199C 110.707,195.477 111.04,191.977 111.5,188.5C 106.292,187.873 103.792,190.206 104,195.5C 101.65,191.641 100.483,187.641 100.5,183.5C 107.914,186.934 115.581,187.434 123.5,185C 125.88,183.647 128.38,182.481 131,181.5C 133.01,183.927 135.51,184.76 138.5,184C 139.059,183.275 139.392,182.442 139.5,181.5C 138.678,179.313 137.178,177.647 135,176.5C 134.667,173.833 134.333,171.167 134,168.5C 132.333,167.167 130.667,167.167 129,168.5C 128.818,171.226 128.318,173.893 127.5,176.5C 118.569,181.775 109.736,181.775 101,176.5C 93.8829,167.651 93.7162,158.651 100.5,149.5C 99.0662,144.109 99.2329,138.776 101,133.5C 102.019,132.313 103.186,131.313 104.5,130.5C 107.892,135.729 112.559,139.229 118.5,141C 124.833,141.333 131.167,141.667 137.5,142C 141.932,146.37 147.098,147.87 153,146.5C 153.667,145.167 153.667,143.833 153,142.5C 148.927,141.717 145.094,140.217 141.5,138C 138.09,134.101 136.924,129.601 138,124.5C 139.816,123.671 141.649,122.837 143.5,122C 144.517,120.951 144.684,119.784 144,118.5C 138.377,118.974 132.877,118.474 127.5,117C 126.446,118.388 126.28,119.888 127,121.5C 128.652,122.399 130.152,123.399 131.5,124.5C 131.5,128.167 131.5,131.833 131.5,135.5C 128.5,135.5 125.5,135.5 122.5,135.5C 115.492,134.999 110.992,131.332 109,124.5C 106.52,112.962 111.02,105.795 122.5,103C 126.866,93.4377 134.199,88.6044 144.5,88.5C 144.25,101.854 150.583,110.021 163.5,113C 164.398,115.4 166.064,116.9 168.5,117.5C 170.266,117.566 171.266,116.732 171.5,115C 170.152,113.445 169.486,111.611 169.5,109.5C 170.172,107.168 170.339,104.834 170,102.5C 168.612,101.446 167.112,101.28 165.5,102C 164.052,106.394 161.385,107.394 157.5,105C 149.949,98.0669 148.449,89.9003 153,80.5C 162.276,73.3433 170.942,74.01 179,82.5C 179.862,84.087 180.529,85.7536 181,87.5C 185.925,109.929 181.092,129.762 166.5,147C 155.878,155.422 143.711,159.255 130,158.5C 123.221,158.259 116.554,157.259 110,155.5C 107.058,155.437 106.058,156.77 107,159.5C 108.171,160.893 109.671,161.727 111.5,162C 131.876,167.003 150.876,164.003 168.5,153C 173.589,148.646 177.589,143.48 180.5,137.5C 183.807,135.83 185.807,136.83 186.5,140.5 Z"/></g>
<g><path style="opacity:1" fill="#9ed1d9" d="M 120.5,106.5 C 126.609,107.055 132.442,107.055 138,106.5C 138.82,108.728 138.487,110.728 137,112.5C 136.667,111.833 136.333,111.167 136,110.5C 134.216,113.003 132.549,113.003 131,110.5C 130.261,111.574 129.261,112.241 128,112.5C 125.589,111.873 123.089,111.873 120.5,112.5C 120.5,110.5 120.5,108.5 120.5,106.5 Z"/></g>
<g><path style="opacity:1" fill="#b5e1e7" d="M 140.5,106.5 C 144.82,106.959 145.487,108.792 142.5,112C 141.552,112.483 140.552,112.649 139.5,112.5C 139.325,110.379 139.659,108.379 140.5,106.5 Z"/></g>
<g><path style="opacity:1" fill="#68bed1" d="M 170.5,84.5 C 171.209,83.596 172.209,83.2627 173.5,83.5C 172.557,88.4053 172.224,93.2386 172.5,98C 168.167,97.3333 163.833,97.3333 159.5,98C 158.798,94.5344 158.131,91.0344 157.5,87.5C 158.812,83.8594 159.979,84.1927 161,88.5C 162.389,86.7727 164.056,85.4394 166,84.5C 167.963,85.6254 169.796,86.9587 171.5,88.5C 172.809,86.7605 172.476,85.4271 170.5,84.5 Z"/></g>
<g><path style="opacity:1" fill="#f9d2c3" d="M 41.5,121.5 C 41.5238,125.787 40.1905,129.453 37.5,132.5C 38.0249,128.467 39.3582,124.8 41.5,121.5 Z"/></g>
<g><path style="opacity:1" fill="#bbd1e9" d="M 234.5,132.5 C 234.5,131.167 234.5,129.833 234.5,128.5C 231.594,128.916 228.761,129.582 226,130.5C 224.615,130.486 223.449,130.152 222.5,129.5C 226.781,129.269 230.781,128.435 234.5,127C 235.807,128.943 235.807,130.777 234.5,132.5 Z"/></g>
<g><path style="opacity:1" fill="#8cc8d3" d="M 148.5,126.5 C 151.485,123.015 154.652,119.681 158,116.5C 160.631,117.963 162.798,119.963 164.5,122.5C 163.758,123.287 162.925,123.953 162,124.5C 160.802,118.201 158.302,117.367 154.5,122C 156.957,123.154 156.957,124.488 154.5,126C 155.5,127 156.5,128 157.5,129C 155.167,131.333 152.833,133.667 150.5,136C 145.504,136.664 143.67,134.498 145,129.5C 146.039,128.29 147.206,127.29 148.5,126.5 Z"/></g>
<g><path style="opacity:1" fill="#2da7c4" d="M 148.5,126.5 C 150.977,126.051 152.977,126.717 154.5,128.5C 148.071,136.943 146.071,136.276 148.5,126.5 Z"/></g>
<g><path style="opacity:1" fill="#9fb7e0" d="M 221.5,129.5 C 220.167,129.5 218.833,129.5 217.5,129.5C 217.5,131.167 217.5,132.833 217.5,134.5C 216.883,134.389 216.383,134.056 216,133.5C 215.336,128.733 217.169,127.399 221.5,129.5 Z"/></g>
<g><path style="opacity:0.255" fill="#fbbda9" d="M 18.5,106.5 C 18.5,107.5 18.5,108.5 18.5,109.5C 11.5228,123.073 6.85613,137.407 4.5,152.5C 3.83333,153.833 3.16667,155.167 2.5,156.5C 2.5,155.167 2.5,153.833 2.5,152.5C 5.27297,136.177 10.6063,120.844 18.5,106.5 Z"/></g>
<g><path style="opacity:1" fill="#526cc5" d="M 265.5,146.5 C 265.737,142.727 265.237,139.06 264,135.5C 262.172,134.248 260.339,134.248 258.5,135.5C 259.889,129.38 262.056,129.047 265,134.5C 266.714,138.563 266.88,142.563 265.5,146.5 Z"/></g>
<g><path style="opacity:1" fill="#9dd6de" d="M 131.5,124.5 C 132.483,128.298 132.817,132.298 132.5,136.5C 128.958,136.813 125.625,136.479 122.5,135.5C 125.5,135.5 128.5,135.5 131.5,135.5C 131.5,131.833 131.5,128.167 131.5,124.5 Z"/></g>
<g><path style="opacity:1" fill="#4a68c0" d="M 230.5,135.5 C 230.833,135.5 231.167,135.5 231.5,135.5C 231.5,138.167 231.5,140.833 231.5,143.5C 233.167,143.5 234.833,143.5 236.5,143.5C 236.158,144.338 235.492,144.672 234.5,144.5C 233.167,144.5 231.833,144.5 230.5,144.5C 230.5,141.5 230.5,138.5 230.5,135.5 Z"/></g>
<g><path style="opacity:1" fill="#9bb5dd" d="M 192.5,137.5 C 193.906,137.973 194.573,138.973 194.5,140.5C 193.094,140.027 192.427,139.027 192.5,137.5 Z"/></g>
<g><path style="opacity:1" fill="#5978c5" d="M 257.5,136.5 C 256.92,138.749 255.587,140.415 253.5,141.5C 254.08,139.251 255.413,137.585 257.5,136.5 Z"/></g>
<g><path style="opacity:1" fill="#a7c0e2" d="M 194.5,140.5 C 196.167,141.5 197.5,142.833 198.5,144.5C 198.5,144.833 198.5,145.167 198.5,145.5C 196.413,144.415 195.08,142.749 194.5,140.5 Z"/></g>
<g><path style="opacity:1" fill="#7895ce" d="M 240.5,141.5 C 240.027,142.906 239.027,143.573 237.5,143.5C 237.973,142.094 238.973,141.427 240.5,141.5 Z"/></g>
<g><path style="opacity:1" fill="#576fc5" d="M 253.5,141.5 C 252.415,143.587 250.749,144.92 248.5,145.5C 249.585,143.413 251.251,142.08 253.5,141.5 Z"/></g>
<g><path style="opacity:1" fill="#5470c2" d="M 198.5,145.5 C 198.5,145.167 198.5,144.833 198.5,144.5C 201.089,145.419 203.089,147.086 204.5,149.5C 202.246,148.585 200.246,147.252 198.5,145.5 Z"/></g>
<g><path style="opacity:1" fill="#a7c4e2" d="M 230.5,135.5 C 230.5,138.5 230.5,141.5 230.5,144.5C 231.833,144.5 233.167,144.5 234.5,144.5C 233.081,145.451 231.415,145.784 229.5,145.5C 229.187,141.958 229.521,138.625 230.5,135.5 Z"/></g>
<g><path style="opacity:1" fill="#f5bfad" d="M 34.5,140.5 C 34.7406,142.898 34.0739,144.898 32.5,146.5C 32.2594,144.102 32.9261,142.102 34.5,140.5 Z"/></g>
<g><path style="opacity:0.996" fill="#e2f0bf" d="M 347.5,134.5 C 349.912,140.19 351.579,146.19 352.5,152.5C 350.088,146.81 348.421,140.81 347.5,134.5 Z"/></g>
<g><path style="opacity:1" fill="#bde4e9" d="M 107.5,142.5 C 110.526,143.174 113.526,144.007 116.5,145C 115.929,146.205 115.262,147.372 114.5,148.5C 113.808,147.975 113.308,147.308 113,146.5C 111.989,147.337 110.822,147.67 109.5,147.5C 109.719,146.325 109.386,145.325 108.5,144.5C 107.289,145.274 107.289,146.107 108.5,147C 106.14,146.36 105.807,144.86 107.5,142.5 Z"/></g>
<g><path style="opacity:1" fill="#5474c0" d="M 204.5,149.5 C 206.027,149.427 207.027,150.094 207.5,151.5C 205.973,151.573 204.973,150.906 204.5,149.5 Z"/></g>
<g><path style="opacity:1" fill="#97d1db" d="M 118.5,145.5 C 125.081,147.328 131.747,148.995 138.5,150.5C 136.663,154.213 135.163,154.213 134,150.5C 132.691,152.891 131.691,152.891 131,150.5C 127.855,151.88 125.188,151.214 123,148.5C 120.957,150.967 118.79,150.967 116.5,148.5C 117.193,147.482 117.859,146.482 118.5,145.5 Z"/></g>
<g><path style="opacity:1" fill="#3d47ca" d="M 189.5,145.5 C 190.713,148.225 192.546,150.559 195,152.5C 196.036,154.299 196.203,155.966 195.5,157.5C 195.5,159.167 195.5,160.833 195.5,162.5C 193.067,162.727 191.401,161.727 190.5,159.5C 189.791,158.596 188.791,158.263 187.5,158.5C 187.334,153.821 187.501,149.155 188,144.5C 188.383,145.056 188.883,145.389 189.5,145.5 Z"/></g>
<g><path style="opacity:1" fill="#415ac5" d="M 189.5,145.5 C 192.964,148.462 196.297,151.629 199.5,155C 203.262,157.206 206.929,159.373 210.5,161.5C 208.451,160.359 206.451,160.359 204.5,161.5C 204.631,160.624 204.298,159.957 203.5,159.5C 201.929,161.415 199.929,162.415 197.5,162.5C 197.923,160.219 197.256,158.552 195.5,157.5C 196.203,155.966 196.036,154.299 195,152.5C 192.546,150.559 190.713,148.225 189.5,145.5 Z"/></g>
<g><path style="opacity:1" fill="#5876c3" d="M 240.5,149.5 C 240.167,150.167 239.833,150.833 239.5,151.5C 237.896,152.287 237.229,153.62 237.5,155.5C 236.596,154.791 236.263,153.791 236.5,152.5C 233.482,152.335 230.482,152.502 227.5,153C 225.095,155.032 225.595,156.532 229,157.5C 229.167,158.5 229.333,159.5 229.5,160.5C 229.36,162.03 228.693,163.03 227.5,163.5C 228.473,161.932 228.64,160.265 228,158.5C 225.853,157.887 223.686,157.221 221.5,156.5C 223.316,155.185 224.983,153.685 226.5,152C 231.275,151.654 235.942,150.821 240.5,149.5 Z"/></g>
<g><path style="opacity:1" fill="#1d73cc" d="M 187.5,141.5 C 187.5,141.833 187.5,142.167 187.5,142.5C 186.502,167.328 186.169,192.328 186.5,217.5C 186.167,217.5 185.833,217.5 185.5,217.5C 184.843,191.811 185.509,166.478 187.5,141.5 Z"/></g>
<g><path style="opacity:0.996" fill="#cee49b" d="M 352.5,152.5 C 353.924,154.515 354.59,156.848 354.5,159.5C 353.076,157.485 352.41,155.152 352.5,152.5 Z"/></g>
<g><path style="opacity:0.976" fill="#aacf5d" d="M 374.5,133.5 C 375.143,135.076 376.143,136.41 377.5,137.5C 378.301,139.042 378.634,140.708 378.5,142.5C 378.84,148.208 379.507,153.875 380.5,159.5C 379.778,159.082 379.278,158.416 379,157.5C 377.817,149.42 376.317,141.42 374.5,133.5 Z"/></g>
<g><path style="opacity:1" fill="#9cc3de" d="M 260.5,162.5 C 261.686,163.961 261.686,165.295 260.5,166.5C 257.833,166.5 255.167,166.5 252.5,166.5C 252.285,168.179 252.952,169.179 254.5,169.5C 256.582,170.585 256.916,172.085 255.5,174C 252.51,174.847 251.176,173.68 251.5,170.5C 249.901,170.768 248.568,170.434 247.5,169.5C 246.644,166.487 244.811,165.82 242,167.5C 241.517,168.448 241.351,169.448 241.5,170.5C 240.432,171.434 239.099,171.768 237.5,171.5C 237.5,169.833 237.5,168.167 237.5,166.5C 238.833,166.5 240.167,166.5 241.5,166.5C 241.383,164.516 242.05,162.85 243.5,161.5C 241.995,160.158 241.328,158.492 241.5,156.5C 239.901,156.768 238.568,156.434 237.5,155.5C 237.229,153.62 237.896,152.287 239.5,151.5C 240.947,152.622 241.947,154.122 242.5,156C 243.167,156.167 243.833,156.333 244.5,156.5C 246.003,155.477 247.503,154.477 249,153.5C 250.497,154.477 251.997,155.477 253.5,156.5C 254.416,156.457 255.083,156.124 255.5,155.5C 256.234,154.122 256.901,152.622 257.5,151C 260.667,150.167 261.833,151.333 261,154.5C 257.748,155.649 255.915,157.982 255.5,161.5C 257.045,162.452 258.712,162.785 260.5,162.5 Z"/></g>
<g><path style="opacity:1" fill="#3552c6" d="M 187.5,142.5 C 188.906,142.973 189.573,143.973 189.5,145.5C 188.883,145.389 188.383,145.056 188,144.5C 187.501,149.155 187.334,153.821 187.5,158.5C 188.791,158.263 189.791,158.596 190.5,159.5C 189.624,159.369 188.957,159.702 188.5,160.5C 189.383,161.548 190.05,162.715 190.5,164C 187.683,168.344 187.85,172.511 191,176.5C 191.497,178.81 191.663,181.143 191.5,183.5C 191.5,184.5 191.5,185.5 191.5,186.5C 190.681,183.695 190.181,180.695 190,177.5C 189.586,177.043 189.086,176.709 188.5,176.5C 187.232,191.514 187.232,206.514 188.5,221.5C 187.599,220.71 186.932,219.71 186.5,218.5C 186.5,218.167 186.5,217.833 186.5,217.5C 186.169,192.328 186.502,167.328 187.5,142.5 Z"/></g>
<g><path style="opacity:0.267" fill="#fed6c9" d="M 2.5,152.5 C 2.5,153.833 2.5,155.167 2.5,156.5C 1.24474,163.596 0.244742,170.596 -0.5,177.5C -0.5,171.5 -0.5,165.5 -0.5,159.5C 0.348502,157.112 1.3485,154.779 2.5,152.5 Z"/></g>
<g><path style="opacity:0.996" fill="#e37654" d="M 4.5,152.5 C 2.25648,165.047 0.923147,177.713 0.5,190.5C 9.16667,190.5 17.8333,190.5 26.5,190.5C 26.5,190.833 26.5,191.167 26.5,191.5C 17.5,191.5 8.5,191.5 -0.5,191.5C -0.5,186.833 -0.5,182.167 -0.5,177.5C 0.244742,170.596 1.24474,163.596 2.5,156.5C 3.16667,155.167 3.83333,153.833 4.5,152.5 Z"/></g>
<g><path style="opacity:1" fill="#95bedb" d="M 195.5,157.5 C 197.256,158.552 197.923,160.219 197.5,162.5C 199.929,162.415 201.929,161.415 203.5,159.5C 204.298,159.957 204.631,160.624 204.5,161.5C 203.305,161.866 202.639,162.699 202.5,164C 203.93,165.889 204.597,168.055 204.5,170.5C 202.535,174.183 201.535,178.183 201.5,182.5C 201.5,182.833 201.5,183.167 201.5,183.5C 199.327,180.983 198.327,177.983 198.5,174.5C 199.895,175.815 200.895,175.481 201.5,173.5C 202.782,172.292 202.782,170.958 201.5,169.5C 199.475,167.804 197.475,166.137 195.5,164.5C 190.922,165.818 189.422,168.818 191,173.5C 191.953,175.373 193.12,175.706 194.5,174.5C 194.66,176.199 194.494,177.866 194,179.5C 193.667,179.167 193.333,178.833 193,178.5C 192.802,180.382 192.302,182.048 191.5,183.5C 191.663,181.143 191.497,178.81 191,176.5C 187.85,172.511 187.683,168.344 190.5,164C 190.05,162.715 189.383,161.548 188.5,160.5C 188.957,159.702 189.624,159.369 190.5,159.5C 191.401,161.727 193.067,162.727 195.5,162.5C 195.5,160.833 195.5,159.167 195.5,157.5 Z"/></g>
<g><path style="opacity:1" fill="#77c4d3" d="M 169.5,156.5 C 171.797,158.294 173.963,160.294 176,162.5C 175.973,160.583 175.139,158.916 173.5,157.5C 174.365,157.436 175.365,157.103 176.5,156.5C 180.238,166.268 176.905,170.101 166.5,168C 167.5,169 168.5,170 169.5,171C 167.057,170.914 165.39,169.581 164.5,167C 163.101,166.405 161.768,166.572 160.5,167.5C 159.289,168.274 159.289,169.107 160.5,170C 159.692,170.308 159.025,170.808 158.5,171.5C 159.648,173.149 160.981,174.649 162.5,176C 160.866,176.494 159.199,176.66 157.5,176.5C 157.071,172.743 157.737,169.243 159.5,166C 162.5,165.667 165.5,165.333 168.5,165C 167.04,164.189 166.707,163.355 167.5,162.5C 168.981,163.48 170.315,164.647 171.5,166C 172.167,166.667 172.833,166.667 173.5,166C 164.501,156.999 164.834,156.666 174.5,165C 175.167,165.667 175.833,165.667 176.5,165C 173.553,162.564 171.22,159.731 169.5,156.5 Z"/></g>
<g><path style="opacity:1" fill="#ccecf0" d="M 101.5,164.5 C 102.873,164.343 104.207,164.51 105.5,165C 103.395,166.335 102.729,168.002 103.5,170C 102.552,170.483 101.552,170.649 100.5,170.5C 100.325,168.379 100.659,166.379 101.5,164.5 Z"/></g>
<g><path style="opacity:1" fill="#e5f4f5" d="M 118.5,171.5 C 114.482,172.824 111.815,171.491 110.5,167.5C 111.952,166.287 113.286,166.62 114.5,168.5C 115.167,168.167 115.833,167.833 116.5,167.5C 119.036,167.844 121.203,168.844 123,170.5C 123.333,170.167 123.667,169.833 124,169.5C 124.432,170.6 123.932,171.267 122.5,171.5C 120.946,170.628 119.612,170.628 118.5,171.5 Z"/></g>
<g><path style="opacity:0.259" fill="#e2f2c0" d="M 378.5,142.5 C 380.638,148.72 382.305,155.053 383.5,161.5C 383.5,164.5 383.5,167.5 383.5,170.5C 382.903,166.733 381.903,163.066 380.5,159.5C 379.507,153.875 378.84,148.208 378.5,142.5 Z"/></g>
<g><path style="opacity:1" fill="#f2b59e" d="M 29.5,158.5 C 29.7204,163.1 29.0538,167.433 27.5,171.5C 27.2796,166.9 27.9462,162.567 29.5,158.5 Z"/></g>
<g><path style="opacity:1" fill="#3b58c3" d="M 201.5,173.5 C 200.287,171.272 198.62,169.272 196.5,167.5C 195.311,166.571 193.978,166.238 192.5,166.5C 191.99,169.388 192.656,171.721 194.5,173.5C 194.5,173.833 194.5,174.167 194.5,174.5C 193.12,175.706 191.953,175.373 191,173.5C 189.422,168.818 190.922,165.818 195.5,164.5C 197.475,166.137 199.475,167.804 201.5,169.5C 202.782,170.958 202.782,172.292 201.5,173.5 Z"/></g>
<g><path style="opacity:1" fill="#3d48ca" d="M 201.5,173.5 C 199.167,173.5 196.833,173.5 194.5,173.5C 192.656,171.721 191.99,169.388 192.5,166.5C 193.978,166.238 195.311,166.571 196.5,167.5C 198.62,169.272 200.287,171.272 201.5,173.5 Z"/></g>
<g><path style="opacity:1" fill="#a3d3db" d="M 110.5,167.5 C 111.815,171.491 114.482,172.824 118.5,171.5C 118.577,172.75 119.244,173.583 120.5,174C 119.833,174.167 119.167,174.333 118.5,174.5C 113.957,172.664 109.624,171.331 105.5,170.5C 105.5,169.5 105.5,168.5 105.5,167.5C 107.167,167.5 108.833,167.5 110.5,167.5 Z"/></g>
<g><path style="opacity:1" fill="#4b7cc5" d="M 194.5,174.5 C 194.5,174.167 194.5,173.833 194.5,173.5C 196.833,173.5 199.167,173.5 201.5,173.5C 200.895,175.481 199.895,175.815 198.5,174.5C 197.167,175.833 195.833,175.833 194.5,174.5 Z"/></g>
<g><path style="opacity:1" fill="#d3ebf2" d="M 194.5,174.5 C 195.833,175.833 197.167,175.833 198.5,174.5C 198.327,177.983 199.327,180.983 201.5,183.5C 201.567,184.959 201.234,186.292 200.5,187.5C 197.263,189.015 194.263,188.681 191.5,186.5C 191.5,185.5 191.5,184.5 191.5,183.5C 192.302,182.048 192.802,180.382 193,178.5C 193.333,178.833 193.667,179.167 194,179.5C 194.494,177.866 194.66,176.199 194.5,174.5 Z"/></g>
<g><path style="opacity:1" fill="#c6d9ee" d="M 227.5,179.5 C 225.763,182.012 223.263,183.012 220,182.5C 218.167,182.333 216.333,182.167 214.5,182C 213.944,181.617 213.611,181.117 213.5,180.5C 213.833,180.5 214.167,180.5 214.5,180.5C 218.904,181.779 223.238,181.446 227.5,179.5 Z"/></g>
<g><path style="opacity:1" fill="#90b6d9" d="M 263.5,183.5 C 264.209,182.596 265.209,182.263 266.5,182.5C 266.768,184.099 266.434,185.432 265.5,186.5C 265.715,184.821 265.048,183.821 263.5,183.5 Z"/></g>
<g><path style="opacity:1" fill="#0b99ce" d="M 186.5,140.5 C 187.167,140.5 187.5,140.833 187.5,141.5C 185.509,166.478 184.843,191.811 185.5,217.5C 184.337,191.67 184.17,165.67 185,139.5C 185.383,140.056 185.883,140.389 186.5,140.5 Z"/></g>
<g><path style="opacity:1" fill="#4b69c4" d="M 263.5,183.5 C 265.048,183.821 265.715,184.821 265.5,186.5C 265.598,188.553 264.931,190.22 263.5,191.5C 264.167,189.181 264.334,186.847 264,184.5C 262.556,186.155 260.722,186.822 258.5,186.5C 259.659,184.75 261.326,183.75 263.5,183.5 Z"/></g>
<g><path style="opacity:1" fill="#74a0cf" d="M 229.5,186.5 C 230.167,187.167 230.833,187.833 231.5,188.5C 229.708,188.366 228.042,188.699 226.5,189.5C 221.833,188.833 217.167,188.167 212.5,187.5C 218.203,187.625 223.87,187.292 229.5,186.5 Z"/></g>
<g><path style="opacity:1" fill="#3e47cb" d="M 263.5,191.5 C 263.167,192.167 262.833,192.833 262.5,193.5C 261.198,192.643 259.865,192.143 258.5,192C 258.833,192.333 259.167,192.667 259.5,193C 256.84,194.827 254.506,196.994 252.5,199.5C 253.494,204.864 251.661,209.197 247,212.5C 247.768,210.156 248.935,207.823 250.5,205.5C 249.998,204.479 249.332,204.312 248.5,205C 247.031,208.93 245.864,209.097 245,205.5C 244.667,205.833 244.333,206.167 244,206.5C 243.626,205.584 243.126,204.75 242.5,204C 243.211,201.777 243.711,199.277 244,196.5C 243.692,197.308 243.192,197.975 242.5,198.5C 241.719,197.271 241.219,195.938 241,194.5C 239.865,194.273 238.698,193.94 237.5,193.5C 239.046,192.316 240.713,191.316 242.5,190.5C 241.467,189.548 240.3,189.548 239,190.5C 237.699,189.902 236.865,188.902 236.5,187.5C 238.532,187.563 240.532,187.563 242.5,187.5C 247.895,187.733 253.228,187.4 258.5,186.5C 260.722,186.822 262.556,186.155 264,184.5C 264.334,186.847 264.167,189.181 263.5,191.5 Z"/></g>
<g><path style="opacity:1" fill="#0ea6ef" d="M 26.5,192.5 C 27.0243,208.119 29.3576,223.452 33.5,238.5C 33.3455,241.716 34.3455,244.383 36.5,246.5C 39.296,253.438 42.1294,260.438 45,267.5C 76.9938,324.592 125.827,354.259 191.5,356.5C 191.5,365.5 191.5,374.5 191.5,383.5C 184.5,383.5 177.5,383.5 170.5,383.5C 162.804,381.093 154.804,379.426 146.5,378.5C 136.201,375.066 125.867,371.566 115.5,368C 101.438,361.799 88.4384,353.799 76.5,344C 75.2068,343.51 73.8734,343.343 72.5,343.5C 71.5,342.167 70.5,340.833 69.5,339.5C 63.7895,331.838 56.7895,325.838 48.5,321.5C 45.9821,316.956 42.9821,312.623 39.5,308.5C 38.675,307.614 37.675,307.281 36.5,307.5C 36.5,307.167 36.5,306.833 36.5,306.5C 32.5949,298.594 28.2616,290.927 23.5,283.5C 21.7561,279.014 19.7561,274.681 17.5,270.5C 16.5195,268.604 15.5195,266.604 14.5,264.5C 14.0431,263.702 13.3764,263.369 12.5,263.5C 11.5,259.5 10.5,255.5 9.5,251.5C 4.30424,232.294 1.30424,212.628 0.5,192.5C 9.16667,192.5 17.8333,192.5 26.5,192.5 Z"/></g>
<g><path style="opacity:0.999" fill="#fdbb0d" d="M 357.5,191.5 C 366.167,191.5 374.833,191.5 383.5,191.5C 383.5,193.5 383.5,195.5 383.5,197.5C 382.225,203.966 381.392,210.632 381,217.5C 378.134,224.122 376.967,231.122 377.5,238.5C 374.533,249.925 370.867,261.091 366.5,272C 361.824,278.858 357.824,286.025 354.5,293.5C 351.34,297.148 348.673,301.148 346.5,305.5C 345.833,305.5 345.5,305.833 345.5,306.5C 342.027,308.637 339.694,311.637 338.5,315.5C 331.167,323.5 323.5,331.167 315.5,338.5C 310.214,341.788 305.214,345.454 300.5,349.5C 297.63,350.433 295.296,352.1 293.5,354.5C 272.249,367.271 249.249,375.937 224.5,380.5C 217.238,380.654 210.238,381.654 203.5,383.5C 199.5,383.5 195.5,383.5 191.5,383.5C 191.5,374.5 191.5,365.5 191.5,356.5C 193.5,356.5 195.5,356.5 197.5,356.5C 205.398,356.214 213.065,355.214 220.5,353.5C 225.147,352.704 229.814,352.037 234.5,351.5C 240.73,350.147 246.897,348.48 253,346.5C 255.287,345.702 257.12,344.369 258.5,342.5C 262.019,342.741 264.685,341.407 266.5,338.5C 274.839,334.349 282.839,329.515 290.5,324C 332.866,290.102 355.2,245.935 357.5,191.5 Z"/></g>
<g><path style="opacity:1" fill="#a3bee0" d="M 226.5,190.5 C 227.32,194.222 225.987,196.555 222.5,197.5C 224.564,195.508 225.897,193.175 226.5,190.5 Z"/></g>
<g><path style="opacity:1" fill="#3e4bc8" d="M 242.5,187.5 C 240.532,187.563 238.532,187.563 236.5,187.5C 236.865,188.902 237.699,189.902 239,190.5C 240.3,189.548 241.467,189.548 242.5,190.5C 240.713,191.316 239.046,192.316 237.5,193.5C 238.698,193.94 239.865,194.273 241,194.5C 241.219,195.938 241.719,197.271 242.5,198.5C 243.192,197.975 243.692,197.308 244,196.5C 243.711,199.277 243.211,201.777 242.5,204C 243.126,204.75 243.626,205.584 244,206.5C 244.333,206.167 244.667,205.833 245,205.5C 245.864,209.097 247.031,208.93 248.5,205C 249.332,204.312 249.998,204.479 250.5,205.5C 248.935,207.823 247.768,210.156 247,212.5C 251.661,209.197 253.494,204.864 252.5,199.5C 254.506,196.994 256.84,194.827 259.5,193C 259.167,192.667 258.833,192.333 258.5,192C 259.865,192.143 261.198,192.643 262.5,193.5C 261.352,197.161 259.186,200.161 256,202.5C 254.297,210.69 249.797,216.69 242.5,220.5C 241.833,215.167 241.167,209.833 240.5,204.5C 240.204,202.597 239.537,200.93 238.5,199.5C 237.347,195.027 235.014,191.361 231.5,188.5C 230.833,187.833 230.167,187.167 229.5,186.5C 231.162,185.015 232.995,183.682 235,182.5C 237.525,184.265 240.025,185.932 242.5,187.5 Z"/></g>
<g><path style="opacity:1" fill="#83cbd8" d="M 164.5,194.5 C 170.807,195.601 171.807,198.434 167.5,203C 160.884,203.76 157.884,207.26 158.5,213.5C 161.592,217.764 165.426,221.097 170,223.5C 170.617,224.449 170.451,225.282 169.5,226C 168.207,226.49 166.873,226.657 165.5,226.5C 164.681,222.147 162.348,218.647 158.5,216C 157.552,215.517 156.552,215.351 155.5,215.5C 155.321,217.954 155.987,220.121 157.5,222C 155.833,225.333 154.167,225.333 152.5,222C 155.45,216.066 153.45,213.733 146.5,215C 145.061,215.991 144.061,217.324 143.5,219C 141.866,219.494 140.199,219.66 138.5,219.5C 138.215,217.712 138.548,216.045 139.5,214.5C 139.906,215.557 139.906,216.891 139.5,218.5C 142.694,218.824 143.694,217.658 142.5,215C 149.172,213.943 150.839,210.61 147.5,205C 143.362,205.218 142.028,203.552 143.5,200C 144.5,199.333 145.5,199.333 146.5,200C 147.212,202.881 148.878,205.048 151.5,206.5C 153.5,205.167 155.5,205.167 157.5,206.5C 159.149,205.352 160.649,204.019 162,202.5C 162.097,199.518 162.93,196.851 164.5,194.5 Z"/></g>
<g><path style="opacity:1" fill="#85a0cf" d="M 238.5,199.5 C 239.537,200.93 240.204,202.597 240.5,204.5C 240.5,205.167 240.5,205.833 240.5,206.5C 239.076,204.485 238.41,202.152 238.5,199.5 Z"/></g>
<g><path style="opacity:1" fill="#4d6ec4" d="M 232.5,216.5 C 232.663,212.293 232.329,208.126 231.5,204C 231.316,202.624 230.649,201.791 229.5,201.5C 230.815,199.024 231.982,199.358 233,202.5C 233.815,207.352 233.648,212.019 232.5,216.5 Z"/></g>
<g><path style="opacity:1" fill="#3764c3" d="M 240.5,204.5 C 241.167,209.833 241.833,215.167 242.5,220.5C 242.5,221.167 242.167,221.5 241.5,221.5C 240.624,221.631 239.957,221.298 239.5,220.5C 240.309,218.929 240.643,217.262 240.5,215.5C 240.5,212.5 240.5,209.5 240.5,206.5C 240.5,205.833 240.5,205.167 240.5,204.5 Z"/></g>
<g><path style="opacity:1" fill="#22a5c6" d="M 151.5,207.5 C 153.91,207.921 155.743,209.254 157,211.5C 157.617,212.449 157.451,213.282 156.5,214C 151.183,214.73 149.517,212.563 151.5,207.5 Z"/></g>
<g><path style="opacity:0.545" fill="#68bee6" d="M -0.5,191.5 C 8.5,191.5 17.5,191.5 26.5,191.5C 26.5,191.833 26.5,192.167 26.5,192.5C 17.8333,192.5 9.16667,192.5 0.5,192.5C 1.30424,212.628 4.30424,232.294 9.5,251.5C 8.83333,251.167 8.16667,250.833 7.5,250.5C 5.87212,247.039 4.87212,243.372 4.5,239.5C 4.70621,236.505 4.03954,233.838 2.5,231.5C 2.5,231.167 2.5,230.833 2.5,230.5C 1.77967,224.326 0.77967,218.326 -0.5,212.5C -0.5,205.5 -0.5,198.5 -0.5,191.5 Z"/></g>
<g><path style="opacity:1" fill="#3d4ac9" d="M 265.5,146.5 C 265.018,147.416 264.685,148.416 264.5,149.5C 273.018,159.245 272.351,168.079 262.5,176C 253.705,182.094 245.038,181.927 236.5,175.5C 233.312,173.944 230.979,174.944 229.5,178.5C 228.508,178.328 227.842,178.662 227.5,179.5C 223.238,181.446 218.904,181.779 214.5,180.5C 213.866,179.053 212.699,178.387 211,178.5C 209.93,178.528 209.097,178.861 208.5,179.5C 206.727,180.314 206.227,181.648 207,183.5C 208.432,185.439 210.265,186.772 212.5,187.5C 217.167,188.167 221.833,188.833 226.5,189.5C 226.5,189.833 226.5,190.167 226.5,190.5C 225.897,193.175 224.564,195.508 222.5,197.5C 220.353,198.932 220.02,200.765 221.5,203C 224.322,203.428 226.988,202.928 229.5,201.5C 230.649,201.791 231.316,202.624 231.5,204C 232.329,208.126 232.663,212.293 232.5,216.5C 231.552,219.14 230.552,221.807 229.5,224.5C 228.094,224.973 227.427,225.973 227.5,227.5C 225.427,229.58 223.093,231.246 220.5,232.5C 214.111,233.951 207.777,233.784 201.5,232C 201.167,231.667 200.833,231.333 200.5,231C 203.5,230.667 206.5,230.333 209.5,230C 210.416,229.722 211.082,229.222 211.5,228.5C 211.232,226.901 211.566,225.568 212.5,224.5C 213.156,223.722 213.989,223.056 215,222.5C 216.997,223.66 218.831,223.66 220.5,222.5C 221.995,222.011 223.329,221.345 224.5,220.5C 225.455,218.717 226.122,216.717 226.5,214.5C 225.469,212.618 224.635,210.618 224,208.5C 221.442,207.045 218.942,206.712 216.5,207.5C 215.85,207.804 215.183,208.137 214.5,208.5C 213.582,205.516 212.248,202.849 210.5,200.5C 208.673,199.309 207.007,197.975 205.5,196.5C 204.816,194.815 203.483,193.815 201.5,193.5C 200.571,194.689 200.238,196.022 200.5,197.5C 198.901,197.232 197.568,197.566 196.5,198.5C 195.833,198.5 195.5,198.833 195.5,199.5C 194.416,201.509 193.416,203.676 192.5,206C 192.528,207.07 192.861,207.903 193.5,208.5C 194.024,210.306 194.691,211.972 195.5,213.5C 195.5,214.167 195.833,214.5 196.5,214.5C 197.5,215.167 198.5,215.833 199.5,216.5C 198.517,220.298 198.183,224.298 198.5,228.5C 195.05,229.244 193.384,227.91 193.5,224.5C 192.5,224.5 191.5,224.5 190.5,224.5C 189.094,224.027 188.427,223.027 188.5,221.5C 187.232,206.514 187.232,191.514 188.5,176.5C 189.086,176.709 189.586,177.043 190,177.5C 190.181,180.695 190.681,183.695 191.5,186.5C 191.414,187.496 191.748,188.329 192.5,189C 193.833,189.167 195.167,189.333 196.5,189.5C 198.333,189.415 199.666,188.748 200.5,187.5C 201.649,187.209 202.316,186.376 202.5,185C 202.472,183.93 202.139,183.097 201.5,182.5C 201.535,178.183 202.535,174.183 204.5,170.5C 204.597,168.055 203.93,165.889 202.5,164C 202.639,162.699 203.305,161.866 204.5,161.5C 206.451,160.359 208.451,160.359 210.5,161.5C 212.102,163.074 214.102,163.741 216.5,163.5C 220.167,163.5 223.833,163.5 227.5,163.5C 228.693,163.03 229.36,162.03 229.5,160.5C 229.333,159.5 229.167,158.5 229,157.5C 225.595,156.532 225.095,155.032 227.5,153C 230.482,152.502 233.482,152.335 236.5,152.5C 236.263,153.791 236.596,154.791 237.5,155.5C 238.568,156.434 239.901,156.768 241.5,156.5C 241.328,158.492 241.995,160.158 243.5,161.5C 242.05,162.85 241.383,164.516 241.5,166.5C 240.167,166.5 238.833,166.5 237.5,166.5C 237.5,168.167 237.5,169.833 237.5,171.5C 239.099,171.768 240.432,171.434 241.5,170.5C 243.169,168.338 245.169,168.005 247.5,169.5C 248.568,170.434 249.901,170.768 251.5,170.5C 251.176,173.68 252.51,174.847 255.5,174C 256.916,172.085 256.582,170.585 254.5,169.5C 254.389,168.883 254.056,168.383 253.5,168C 256.036,167.814 258.369,167.314 260.5,166.5C 261.686,165.295 261.686,163.961 260.5,162.5C 256.976,160.02 257.476,157.687 262,155.5C 262.667,153.833 262.667,152.167 262,150.5C 259.688,150.045 257.688,149.045 256,147.5C 255.503,150.146 255.336,152.813 255.5,155.5C 255.083,156.124 254.416,156.457 253.5,156.5C 251.997,155.477 250.497,154.477 249,153.5C 247.503,154.477 246.003,155.477 244.5,156.5C 243.833,156.333 243.167,156.167 242.5,156C 241.947,154.122 240.947,152.622 239.5,151.5C 239.833,150.833 240.167,150.167 240.5,149.5C 242.938,147.733 245.605,146.399 248.5,145.5C 250.749,144.92 252.415,143.587 253.5,141.5C 255.587,140.415 256.92,138.749 257.5,136.5C 257.5,135.833 257.833,135.5 258.5,135.5C 260.339,134.248 262.172,134.248 264,135.5C 265.237,139.06 265.737,142.727 265.5,146.5 Z"/></g>
<g><path style="opacity:1" fill="#91b7d2" d="M 210.5,200.5 C 212.248,202.849 213.582,205.516 214.5,208.5C 215.183,208.137 215.85,207.804 216.5,207.5C 215.817,209.176 214.483,209.843 212.5,209.5C 212.88,211.698 212.213,213.365 210.5,214.5C 208.833,214.5 207.167,214.5 205.5,214.5C 206.919,213.549 208.585,213.216 210.5,213.5C 210.44,210.979 211.106,208.646 212.5,206.5C 211.246,204.666 210.579,202.666 210.5,200.5 Z"/></g>
<g><path style="opacity:1" fill="#5d7fc5" d="M 193.5,208.5 C 195.256,209.552 195.923,211.219 195.5,213.5C 194.691,211.972 194.024,210.306 193.5,208.5 Z"/></g>
<g><path style="opacity:1" fill="#e3eef6" d="M 224.5,220.5 C 222.517,220.157 221.183,220.824 220.5,222.5C 217.996,221.361 215.33,220.694 212.5,220.5C 212.715,218.821 212.048,217.821 210.5,217.5C 210.5,216.5 210.5,215.5 210.5,214.5C 212.213,213.365 212.88,211.698 212.5,209.5C 214.483,209.843 215.817,209.176 216.5,207.5C 218.942,206.712 221.442,207.045 224,208.5C 224.635,210.618 225.469,212.618 226.5,214.5C 226.122,216.717 225.455,218.717 224.5,220.5 Z"/></g>
<g><path style="opacity:1" fill="#6282c6" d="M 195.5,199.5 C 195.072,202.564 194.406,205.564 193.5,208.5C 192.861,207.903 192.528,207.07 192.5,206C 193.416,203.676 194.416,201.509 195.5,199.5 Z"/></g>
<g><path style="opacity:1" fill="#eaf3f8" d="M 205.5,196.5 C 207.007,197.975 208.673,199.309 210.5,200.5C 210.579,202.666 211.246,204.666 212.5,206.5C 211.106,208.646 210.44,210.979 210.5,213.5C 208.585,213.216 206.919,213.549 205.5,214.5C 204.844,215.278 204.011,215.944 203,216.5C 201.121,214.987 198.954,214.321 196.5,214.5C 195.833,214.5 195.5,214.167 195.5,213.5C 195.923,211.219 195.256,209.552 193.5,208.5C 194.406,205.564 195.072,202.564 195.5,199.5C 195.5,198.833 195.833,198.5 196.5,198.5C 199.564,198.072 202.564,197.406 205.5,196.5 Z"/></g>
<g><path style="opacity:1" fill="#3d54c5" d="M 205.5,208.5 C 203.833,209.833 202.167,209.833 200.5,208.5C 200.35,204.839 201.85,203.839 205,205.5C 205.483,206.448 205.649,207.448 205.5,208.5 Z"/></g>
<g><path style="opacity:1" fill="#6e8dca" d="M 205.5,208.5 C 205.649,207.448 205.483,206.448 205,205.5C 201.85,203.839 200.35,204.839 200.5,208.5C 198.799,205.676 199.633,204.009 203,203.5C 206.367,204.009 207.201,205.676 205.5,208.5 Z"/></g>
<g><path style="opacity:1" fill="#455ec6" d="M 205.5,196.5 C 202.564,197.406 199.564,198.072 196.5,198.5C 197.568,197.566 198.901,197.232 200.5,197.5C 200.238,196.022 200.571,194.689 201.5,193.5C 203.483,193.815 204.816,194.815 205.5,196.5 Z"/></g>
<g><path style="opacity:1" fill="#5d82c9" d="M 191.5,186.5 C 194.263,188.681 197.263,189.015 200.5,187.5C 199.666,188.748 198.333,189.415 196.5,189.5C 195.167,189.333 193.833,189.167 192.5,189C 191.748,188.329 191.414,187.496 191.5,186.5 Z"/></g>
<g><path style="opacity:1" fill="#5e87c9" d="M 201.5,182.5 C 202.139,183.097 202.472,183.93 202.5,185C 202.316,186.376 201.649,187.209 200.5,187.5C 201.234,186.292 201.567,184.959 201.5,183.5C 201.5,183.167 201.5,182.833 201.5,182.5 Z"/></g>
<g><path style="opacity:1" fill="#94c2d5" d="M 195.5,177.5 C 196.883,180.059 198.55,182.559 200.5,185C 199.167,185.333 197.833,185.667 196.5,186C 197.888,186.889 197.722,187.389 196,187.5C 194.829,186.66 193.662,185.827 192.5,185C 194.953,183.152 195.953,180.652 195.5,177.5 Z"/></g>
<g><path style="opacity:1" fill="#5480c5" d="M 208.5,179.5 C 209.097,178.861 209.93,178.528 211,178.5C 212.699,178.387 213.866,179.053 214.5,180.5C 214.167,180.5 213.833,180.5 213.5,180.5C 211.958,179.699 210.292,179.366 208.5,179.5 Z"/></g>
<g><path style="opacity:1" fill="#b3c6e6" d="M 236.5,175.5 C 233.962,176.043 231.628,177.043 229.5,178.5C 230.979,174.944 233.312,173.944 236.5,175.5 Z"/></g>
<g><path style="opacity:1" fill="#436fc1" d="M 260.5,166.5 C 258.369,167.314 256.036,167.814 253.5,168C 254.056,168.383 254.389,168.883 254.5,169.5C 252.952,169.179 252.285,168.179 252.5,166.5C 255.167,166.5 257.833,166.5 260.5,166.5 Z"/></g>
<g><path style="opacity:1" fill="#5068c4" d="M 247.5,169.5 C 245.169,168.005 243.169,168.338 241.5,170.5C 241.351,169.448 241.517,168.448 242,167.5C 244.811,165.82 246.644,166.487 247.5,169.5 Z"/></g>
<g><path style="opacity:1" fill="#4070c2" d="M 210.5,161.5 C 212.898,161.259 214.898,161.926 216.5,163.5C 214.102,163.741 212.102,163.074 210.5,161.5 Z"/></g>
<g><path style="opacity:1" fill="#3b4ec6" d="M 246.5,158.5 C 249.604,157.971 251.937,158.971 253.5,161.5C 252.19,164.561 249.857,165.894 246.5,165.5C 245.454,163.118 245.454,160.785 246.5,158.5 Z"/></g>
<g><path style="opacity:1" fill="#3954c1" d="M 260.5,162.5 C 258.712,162.785 257.045,162.452 255.5,161.5C 255.915,157.982 257.748,155.649 261,154.5C 261.833,151.333 260.667,150.167 257.5,151C 256.901,152.622 256.234,154.122 255.5,155.5C 255.336,152.813 255.503,150.146 256,147.5C 257.688,149.045 259.688,150.045 262,150.5C 262.667,152.167 262.667,153.833 262,155.5C 257.476,157.687 256.976,160.02 260.5,162.5 Z"/></g>
<g><path style="opacity:1" fill="#507ec1" d="M 196.5,214.5 C 198.954,214.321 201.121,214.987 203,216.5C 204.011,215.944 204.844,215.278 205.5,214.5C 207.167,214.5 208.833,214.5 210.5,214.5C 210.5,215.5 210.5,216.5 210.5,217.5C 209.833,217.5 209.167,217.5 208.5,217.5C 206.302,216.933 203.969,216.933 201.5,217.5C 201.768,219.099 201.434,220.432 200.5,221.5C 200.784,219.585 200.451,217.919 199.5,216.5C 198.5,215.833 197.5,215.167 196.5,214.5 Z"/></g>
<g><path style="opacity:1" fill="#4a67c5" d="M 216.5,212.5 C 217.833,212.5 219.167,212.5 220.5,212.5C 220.99,214.948 220.157,216.615 218,217.5C 215.389,216.5 214.889,214.833 216.5,212.5 Z"/></g>
<g><path style="opacity:1" fill="#dfecf4" d="M 208.5,217.5 C 209.209,218.404 210.209,218.737 211.5,218.5C 211.833,220.5 212.167,222.5 212.5,224.5C 211.566,225.568 211.232,226.901 211.5,228.5C 208.08,229.811 204.747,229.644 201.5,228C 199.903,225.812 199.569,223.646 200.5,221.5C 201.434,220.432 201.768,219.099 201.5,217.5C 203.969,216.933 206.302,216.933 208.5,217.5 Z"/></g>
<g><path style="opacity:0.009" fill="#e6f9fe" d="M -0.5,212.5 C 0.77967,218.326 1.77967,224.326 2.5,230.5C 1.6515,228.112 0.651498,225.779 -0.5,223.5C -0.5,219.833 -0.5,216.167 -0.5,212.5 Z"/></g>
<g><path style="opacity:1" fill="#78a6cb" d="M 208.5,217.5 C 209.167,217.5 209.833,217.5 210.5,217.5C 212.048,217.821 212.715,218.821 212.5,220.5C 215.33,220.694 217.996,221.361 220.5,222.5C 218.831,223.66 216.997,223.66 215,222.5C 213.989,223.056 213.156,223.722 212.5,224.5C 212.167,222.5 211.833,220.5 211.5,218.5C 210.209,218.737 209.209,218.404 208.5,217.5 Z"/></g>
<g><path style="opacity:1" fill="#638bc5" d="M 224.5,220.5 C 223.329,221.345 221.995,222.011 220.5,222.5C 221.183,220.824 222.517,220.157 224.5,220.5 Z"/></g>
<g><path style="opacity:1" fill="#619ec7" d="M 240.5,215.5 C 240.643,217.262 240.309,218.929 239.5,220.5C 239.957,221.298 240.624,221.631 241.5,221.5C 240.791,222.404 239.791,222.737 238.5,222.5C 238.41,219.848 239.076,217.515 240.5,215.5 Z"/></g>
<g><path style="opacity:1" fill="#fcc943" d="M 383.5,197.5 C 383.5,202.167 383.5,206.833 383.5,211.5C 381.913,220.593 379.913,229.593 377.5,238.5C 376.967,231.122 378.134,224.122 381,217.5C 381.392,210.632 382.225,203.966 383.5,197.5 Z"/></g>
<g><path style="opacity:1" fill="#526ebf" d="M 204.5,220.5 C 207.5,220.167 208.833,221.5 208.5,224.5C 207.167,224.5 205.833,224.5 204.5,224.5C 204.5,223.167 204.5,221.833 204.5,220.5 Z"/></g>
<g><path style="opacity:1" fill="#3f59c6" d="M 199.5,216.5 C 200.451,217.919 200.784,219.585 200.5,221.5C 199.569,223.646 199.903,225.812 201.5,228C 204.747,229.644 208.08,229.811 211.5,228.5C 211.082,229.222 210.416,229.722 209.5,230C 206.5,230.333 203.5,230.667 200.5,231C 200.833,231.333 201.167,231.667 201.5,232C 207.777,233.784 214.111,233.951 220.5,232.5C 217.707,234.92 214.374,235.92 210.5,235.5C 201.411,235.961 194.745,232.294 190.5,224.5C 191.5,224.5 192.5,224.5 193.5,224.5C 193.384,227.91 195.05,229.244 198.5,228.5C 198.183,224.298 198.517,220.298 199.5,216.5 Z"/></g>
<g><path style="opacity:1" fill="#9fb4de" d="M 229.5,224.5 C 229.573,226.027 228.906,227.027 227.5,227.5C 227.427,225.973 228.094,224.973 229.5,224.5 Z"/></g>
<g><path style="opacity:0.082" fill="#d4f5fc" d="M 2.5,231.5 C 4.03954,233.838 4.70621,236.505 4.5,239.5C 2.96046,237.162 2.29379,234.495 2.5,231.5 Z"/></g>
<g><path style="opacity:1" fill="#d0edf1" d="M 164.5,234.5 C 164.389,235.117 164.056,235.617 163.5,236C 164.793,236.49 166.127,236.657 167.5,236.5C 167.433,237.959 167.766,239.292 168.5,240.5C 167.265,240.279 166.265,239.612 165.5,238.5C 164.032,240.333 162.365,240.666 160.5,239.5C 163.192,237.461 162.858,236.627 159.5,237C 158.74,238.441 158.074,239.941 157.5,241.5C 158.374,243.747 158.708,246.08 158.5,248.5C 157.609,247.89 156.609,247.557 155.5,247.5C 155.702,245.05 155.369,242.717 154.5,240.5C 156.048,240.179 156.715,239.179 156.5,237.5C 153.933,237.279 151.599,236.612 149.5,235.5C 154.562,235.726 159.562,235.392 164.5,234.5 Z"/></g>
<g><path style="opacity:1" fill="#c8eef5" d="M 192.5,239.5 C 227.502,239.333 262.502,239.5 297.5,240C 298.337,241.011 298.67,242.178 298.5,243.5C 297.317,242.496 295.984,241.662 294.5,241C 260.331,240.832 226.331,240.332 192.5,239.5 Z"/></g>
<g><path style="opacity:1" fill="#41a9bf" d="M 95.5,236.5 C 96.8221,236.33 97.9887,236.663 99,237.5C 101.465,245.381 103.299,245.048 104.5,236.5C 105.833,236.5 107.167,236.5 108.5,236.5C 108.5,240.5 108.5,244.5 108.5,248.5C 107.5,248.5 106.5,248.5 105.5,248.5C 105.66,246.801 105.494,245.134 105,243.5C 104.1,245.398 102.934,247.064 101.5,248.5C 100.052,246.333 98.8854,244 98,241.5C 97.8142,243.9 97.3142,246.234 96.5,248.5C 95.5091,244.555 95.1758,240.555 95.5,236.5 Z"/></g>
<g><path style="opacity:1" fill="#cfedf1" d="M 131.5,240.5 C 134.344,239.449 137.344,239.449 140.5,240.5C 138.803,243.715 139.803,245.715 143.5,246.5C 139.626,248.002 139.959,248.669 144.5,248.5C 141.995,249.497 139.328,249.497 136.5,248.5C 139.926,242.9 138.259,240.233 131.5,240.5 Z"/></g>
<g><path style="opacity:1" fill="#90d6f1" d="M 33.5,238.5 C 34.871,240.936 35.871,243.603 36.5,246.5C 34.3455,244.383 33.3455,241.716 33.5,238.5 Z"/></g>
<g><path style="opacity:1" fill="#40a9c2" d="M 168.5,240.5 C 165.914,243.006 165.914,245.506 168.5,248C 164.498,248.563 162.831,246.73 163.5,242.5C 162.5,242.5 161.5,242.5 160.5,242.5C 160.975,245.082 160.308,247.082 158.5,248.5C 158.708,246.08 158.374,243.747 157.5,241.5C 158.074,239.941 158.74,238.441 159.5,237C 162.858,236.627 163.192,237.461 160.5,239.5C 162.365,240.666 164.032,240.333 165.5,238.5C 166.265,239.612 167.265,240.279 168.5,240.5 Z"/></g>
<g><path style="opacity:1" fill="#4eaac0" d="M 116.5,240.5 C 118.199,240.34 119.866,240.506 121.5,241C 118.124,241.307 116.79,243.14 117.5,246.5C 118.978,246.238 120.311,246.571 121.5,247.5C 114.789,248.788 113.123,246.455 116.5,240.5 Z"/></g>
<g><path style="opacity:1" fill="#3aa9bd" d="M 123.5,240.5 C 125.288,240.215 126.955,240.548 128.5,241.5C 126.205,243.2 124.872,245.534 124.5,248.5C 123.52,245.914 123.187,243.247 123.5,240.5 Z"/></g>
<g><path style="opacity:1" fill="#4eacc0" d="M 140.5,240.5 C 142.288,240.215 143.955,240.548 145.5,241.5C 144.624,242.251 143.624,242.751 142.5,243C 145.41,244.173 146.077,246.006 144.5,248.5C 139.959,248.669 139.626,248.002 143.5,246.5C 139.803,245.715 138.803,243.715 140.5,240.5 Z"/></g>
<g><path style="opacity:1" fill="#4aadc4" d="M 131.5,240.5 C 138.259,240.233 139.926,242.9 136.5,248.5C 129.378,249.206 127.712,246.54 131.5,240.5 Z"/></g>
<g><path style="opacity:1" fill="#e6f9fa" d="M 132.5,242.5 C 133.5,242.5 134.5,242.5 135.5,242.5C 135.5,243.833 135.5,245.167 135.5,246.5C 134.5,246.5 133.5,246.5 132.5,246.5C 132.5,245.167 132.5,243.833 132.5,242.5 Z"/></g>
<g><path style="opacity:1" fill="#40abbd" d="M 110.5,240.5 C 111.5,240.5 112.5,240.5 113.5,240.5C 113.5,243.167 113.5,245.833 113.5,248.5C 112.5,248.5 111.5,248.5 110.5,248.5C 110.5,245.833 110.5,243.167 110.5,240.5 Z"/></g>
<g><path style="opacity:1" fill="#ddf3f5" d="M 191.5,245.5 C 225.906,245.174 260.24,245.507 294.5,246.5C 294.829,260.344 294.496,274.01 293.5,287.5C 293.823,273.921 293.49,260.421 292.5,247C 258.664,246.832 224.998,246.332 191.5,245.5 Z"/></g>
<g><path style="opacity:1" fill="#42a7be" d="M 154.5,240.5 C 155.369,242.717 155.702,245.05 155.5,247.5C 148.429,250.26 146.095,248.094 148.5,241C 150.473,240.505 152.473,240.338 154.5,240.5 Z"/></g>
<g><path style="opacity:1" fill="#d7f2f6" d="M 149.5,242.5 C 150.833,242.5 152.167,242.5 153.5,242.5C 153.5,243.833 153.5,245.167 153.5,246.5C 152.167,246.5 150.833,246.5 149.5,246.5C 149.5,245.167 149.5,243.833 149.5,242.5 Z"/></g>
<g><path style="opacity:0.078" fill="#ffeebd" d="M 383.5,211.5 C 383.5,216.5 383.5,221.5 383.5,226.5C 379.203,241.226 374.369,255.893 369,270.5C 364.899,279.713 360.066,288.38 354.5,296.5C 354.5,295.5 354.5,294.5 354.5,293.5C 357.824,286.025 361.824,278.858 366.5,272C 370.867,261.091 374.533,249.925 377.5,238.5C 379.913,229.593 381.913,220.593 383.5,211.5 Z"/></g>
<g><path style="opacity:1" fill="#71a0cf" d="M 217.5,256.5 C 215.952,255.206 213.952,254.539 211.5,254.5C 209.5,254.833 207.5,255.167 205.5,255.5C 206.689,256.429 208.022,256.762 209.5,256.5C 210.49,262.645 210.823,268.978 210.5,275.5C 209.51,269.69 209.177,263.69 209.5,257.5C 207.833,257.5 206.167,257.5 204.5,257.5C 204.5,256.167 204.5,254.833 204.5,253.5C 209.167,253.5 213.833,253.5 218.5,253.5C 218.737,254.791 218.404,255.791 217.5,256.5 Z"/></g>
<g><path style="opacity:1" fill="#a9c4de" d="M 286.5,254.5 C 283.43,254.368 280.43,254.701 277.5,255.5C 277.611,254.883 277.944,254.383 278.5,254C 281.367,253.199 284.034,253.366 286.5,254.5 Z"/></g>
<g><path style="opacity:1" fill="#6ea3c5" d="M 132.5,254.5 C 134.027,254.427 135.027,255.094 135.5,256.5C 133.973,256.573 132.973,255.906 132.5,254.5 Z"/></g>
<g><path style="opacity:1" fill="#2863bb" d="M 217.5,256.5 C 217.167,256.5 216.833,256.5 216.5,256.5C 214.167,255.167 211.833,255.167 209.5,256.5C 208.022,256.762 206.689,256.429 205.5,255.5C 207.5,255.167 209.5,254.833 211.5,254.5C 213.952,254.539 215.952,255.206 217.5,256.5 Z"/></g>
<g><path style="opacity:0.165" fill="#bfebfd" d="M 7.5,250.5 C 8.16667,250.833 8.83333,251.167 9.5,251.5C 10.5,255.5 11.5,259.5 12.5,263.5C 10.2628,259.466 8.59609,255.132 7.5,250.5 Z"/></g>
<g><path style="opacity:1" fill="#6598c5" d="M 170.5,256.5 C 168.804,254.871 167.804,255.204 167.5,257.5C 166.566,256.432 166.232,255.099 166.5,253.5C 168.973,253.088 170.306,254.088 170.5,256.5 Z"/></g>
<g><path style="opacity:1" fill="#6695c4" d="M 182.5,258.5 C 182.719,257.325 182.386,256.325 181.5,255.5C 180.824,256.602 180.158,257.602 179.5,258.5C 178.756,255.05 180.09,253.384 183.5,253.5C 183.784,255.415 183.451,257.081 182.5,258.5 Z"/></g>
<g><path style="opacity:1" fill="#80a2d3" d="M 286.5,254.5 C 287.404,255.209 287.737,256.209 287.5,257.5C 284.833,257.5 282.167,257.5 279.5,257.5C 282.159,257.083 284.492,256.083 286.5,254.5 Z"/></g>
<g><path style="opacity:1" fill="#558cc5" d="M 159.5,256.5 C 151.08,253.295 145.08,255.628 141.5,263.5C 143.017,255.831 147.683,252.664 155.5,254C 157.32,254.2 158.653,255.034 159.5,256.5 Z"/></g>
<g><path style="opacity:1" fill="#5a84c0" d="M 234.5,256.5 C 233.833,257.833 232.833,258.833 231.5,259.5C 231.5,257.5 232.5,256.5 234.5,256.5 Z"/></g>
<g><path style="opacity:1" fill="#2f59c0" d="M 132.5,254.5 C 132.973,255.906 133.973,256.573 135.5,256.5C 136.338,256.842 136.672,257.508 136.5,258.5C 137.117,264.598 136.45,270.265 134.5,275.5C 134.666,270.156 134.499,264.823 134,259.5C 131.847,257.556 129.347,257.056 126.5,258C 125.748,258.671 125.414,259.504 125.5,260.5C 124.674,265.316 124.174,270.316 124,275.5C 123.333,269.833 123.333,264.167 124,258.5C 125.894,255.156 128.727,253.822 132.5,254.5 Z"/></g>
<g><path style="opacity:1" fill="#87afd8" d="M 167.5,258.5 C 168.924,260.515 169.59,262.848 169.5,265.5C 168.076,263.485 167.41,261.152 167.5,258.5 Z"/></g>
<g><path style="opacity:1" fill="#426fc3" d="M 95.5,254.5 C 96.7498,254.577 97.5831,255.244 98,256.5C 98.4996,263.158 98.6663,269.825 98.5,276.5C 97.5,276.5 96.5,276.5 95.5,276.5C 95.5,269.167 95.5,261.833 95.5,254.5 Z"/></g>
<g><path style="opacity:1" fill="#b5d3e9" d="M 95.5,254.5 C 96.5417,253.209 97.7083,253.209 99,254.5C 99.8218,262.012 99.6552,269.345 98.5,276.5C 98.6663,269.825 98.4996,263.158 98,256.5C 97.5831,255.244 96.7498,254.577 95.5,254.5 Z"/></g>
<g><path style="opacity:1" fill="#3967c0" d="M 116.5,257.5 C 117.747,263.477 117.747,269.477 116.5,275.5C 115.833,270.015 115.167,264.681 114.5,259.5C 113.688,258.007 112.355,257.34 110.5,257.5C 108.645,257.34 107.312,258.007 106.5,259.5C 106.144,265.077 105.144,270.41 103.5,275.5C 102.836,273.022 102.503,270.355 102.5,267.5C 101.746,255.527 106.412,252.193 116.5,257.5 Z"/></g>
<g><path style="opacity:1" fill="#80b2da" d="M 216.5,256.5 C 216.833,256.5 217.167,256.5 217.5,256.5C 216.432,257.434 215.099,257.768 213.5,257.5C 213.5,263.833 213.5,270.167 213.5,276.5C 212.209,276.737 211.209,276.404 210.5,275.5C 212.456,269.588 213.123,263.255 212.5,256.5C 213.833,256.5 215.167,256.5 216.5,256.5 Z"/></g>
<g><path style="opacity:1" fill="#4679c4" d="M 257.5,257.5 C 257.334,263.509 257.501,269.509 258,275.5C 258.173,269.984 258.673,264.651 259.5,259.5C 259.5,265.167 259.5,270.833 259.5,276.5C 258.5,276.5 257.5,276.5 256.5,276.5C 256.177,269.978 256.51,263.645 257.5,257.5 Z"/></g>
<g><path style="opacity:0.427" fill="#a5dff8" d="M 12.5,263.5 C 13.3764,263.369 14.0431,263.702 14.5,264.5C 15.5195,266.604 16.5195,268.604 17.5,270.5C 17.9628,273.221 18.6295,275.888 19.5,278.5C 17.8639,277.251 16.6972,275.584 16,273.5C 14.5335,270.242 13.3668,266.908 12.5,263.5 Z"/></g>
<g><path style="opacity:1" fill="#457fb1" d="M 106.5,259.5 C 106.5,265.167 106.5,270.833 106.5,276.5C 105.209,276.737 104.209,276.404 103.5,275.5C 105.144,270.41 106.144,265.077 106.5,259.5 Z"/></g>
<g><path style="opacity:1" fill="#3c67c1" d="M 159.5,256.5 C 163.827,260.726 164.66,265.726 162,271.5C 155.029,278.381 148.362,278.048 142,270.5C 141.503,268.19 141.337,265.857 141.5,263.5C 145.08,255.628 151.08,253.295 159.5,256.5 Z"/></g>
<g><path style="opacity:1" fill="#eff6f9" d="M 148.5,257.5 C 157.211,256.38 161.044,260.047 160,268.5C 154.87,275.1 149.87,275.1 145,268.5C 143.662,263.96 144.829,260.293 148.5,257.5 Z"/></g>
<g><path style="opacity:1" fill="#3453bd" d="M 209.5,256.5 C 211.833,255.167 214.167,255.167 216.5,256.5C 215.167,256.5 213.833,256.5 212.5,256.5C 213.123,263.255 212.456,269.588 210.5,275.5C 210.823,268.978 210.49,262.645 209.5,256.5 Z"/></g>
<g><path style="opacity:1" fill="#2d5bbe" d="M 222.5,254.5 C 223.821,257.598 224.488,261.098 224.5,265C 224.488,268.902 223.821,272.402 222.5,275.5C 222.5,268.5 222.5,261.5 222.5,254.5 Z"/></g>
<g><path style="opacity:1" fill="#335bc0" d="M 270.5,258.5 C 270.829,264.206 270.495,269.872 269.5,275.5C 268.833,270.015 268.167,264.681 267.5,259.5C 266.688,258.007 265.355,257.34 263.5,257.5C 261.645,257.34 260.312,258.007 259.5,259.5C 258.673,264.651 258.173,269.984 258,275.5C 257.501,269.509 257.334,263.509 257.5,257.5C 258.692,255.078 260.692,254.078 263.5,254.5C 266.818,254.159 269.152,255.492 270.5,258.5 Z"/></g>
<g><path style="opacity:1" fill="#478cc6" d="M 222.5,254.5 C 223.209,253.596 224.209,253.263 225.5,253.5C 225.5,261.167 225.5,268.833 225.5,276.5C 224.209,276.737 223.209,276.404 222.5,275.5C 223.821,272.402 224.488,268.902 224.5,265C 224.488,261.098 223.821,257.598 222.5,254.5 Z"/></g>
<g><path style="opacity:1" fill="#3c64c1" d="M 250.5,259.5 C 251.299,262.43 251.632,265.43 251.5,268.5C 248.67,276.045 243.337,278.545 235.5,276C 230.407,271.983 228.574,266.816 230,260.5C 230.383,259.944 230.883,259.611 231.5,259.5C 232.833,258.833 233.833,257.833 234.5,256.5C 234.611,255.883 234.944,255.383 235.5,255C 239.211,254.175 242.878,254.341 246.5,255.5C 248.188,256.521 249.521,257.855 250.5,259.5 Z"/></g>
<g><path style="opacity:1" fill="#7ba7d1" d="M 246.5,259.5 C 249.517,261.615 250.184,264.282 248.5,267.5C 248.713,264.549 248.046,261.882 246.5,259.5 Z"/></g>
<g><path style="opacity:1" fill="#91bcdf" d="M 235.5,259.5 C 233.954,261.882 233.287,264.549 233.5,267.5C 231.816,264.282 232.483,261.615 235.5,259.5 Z"/></g>
<g><path style="opacity:1" fill="#f2f8fa" d="M 243.5,257.5 C 244.5,258.167 245.5,258.833 246.5,259.5C 248.046,261.882 248.713,264.549 248.5,267.5C 246.367,273.291 242.367,274.958 236.5,272.5C 235.048,271.06 234.048,269.394 233.5,267.5C 233.287,264.549 233.954,261.882 235.5,259.5C 237.882,257.954 240.549,257.287 243.5,257.5 Z"/></g>
<g><path style="opacity:1" fill="#8eb4db" d="M 243.5,257.5 C 240.549,257.287 237.882,257.954 235.5,259.5C 237.615,256.483 240.282,255.816 243.5,257.5 Z"/></g>
<g><path style="opacity:1" fill="#6493ca" d="M 250.5,259.5 C 251.117,259.611 251.617,259.944 252,260.5C 252.801,263.367 252.634,266.034 251.5,268.5C 251.632,265.43 251.299,262.43 250.5,259.5 Z"/></g>
<g><path style="opacity:1" fill="#6194c8" d="M 270.5,258.5 C 271.49,264.31 271.823,270.31 271.5,276.5C 270.167,276.5 268.833,276.5 267.5,276.5C 267.5,270.833 267.5,265.167 267.5,259.5C 268.167,264.681 268.833,270.015 269.5,275.5C 270.495,269.872 270.829,264.206 270.5,258.5 Z"/></g>
<g><path style="opacity:1" fill="#4d8bc7" d="M 200.5,258.5 C 201.833,264.5 201.833,270.5 200.5,276.5C 199.508,276.672 198.842,276.338 198.5,275.5C 200.45,270.265 201.117,264.598 200.5,258.5 Z"/></g>
<g><path style="opacity:1" fill="#42adc2" d="M 294.5,246.5 C 295.661,261.328 295.828,276.328 295,291.5C 294.161,290.376 292.994,289.709 291.5,289.5C 289.488,289.84 287.488,290.173 285.5,290.5C 285.5,289.5 285.5,288.5 285.5,287.5C 288.167,287.5 290.833,287.5 293.5,287.5C 294.496,274.01 294.829,260.344 294.5,246.5 Z"/></g>
<g><path style="opacity:1" fill="#8fb8d8" d="M 181.5,262.5 C 181.741,264.898 181.074,266.898 179.5,268.5C 179.259,266.102 179.926,264.102 181.5,262.5 Z"/></g>
<g><path style="opacity:1" fill="#335ac3" d="M 191.5,257.5 C 190.833,257.5 190.5,257.833 190.5,258.5C 189.532,260.607 189.198,262.941 189.5,265.5C 192.5,265.5 195.5,265.5 198.5,265.5C 198.795,263.265 198.461,261.265 197.5,259.5C 197.5,259.167 197.5,258.833 197.5,258.5C 197.328,257.508 197.662,256.842 198.5,256.5C 199.5,256.833 200.167,257.5 200.5,258.5C 201.117,264.598 200.45,270.265 198.5,275.5C 198.5,273.167 198.5,270.833 198.5,268.5C 195.5,268.5 192.5,268.5 189.5,268.5C 188.686,270.631 188.186,272.964 188,275.5C 187.333,269.833 187.333,264.167 188,258.5C 190.21,255.71 193.044,254.877 196.5,256C 194.618,256.198 192.952,256.698 191.5,257.5 Z"/></g>
<g><path style="opacity:1" fill="#80b5d6" d="M 190.5,258.5 C 190.5,260.5 190.5,262.5 190.5,264.5C 192.833,264.5 195.167,264.5 197.5,264.5C 197.5,262.833 197.5,261.167 197.5,259.5C 198.461,261.265 198.795,263.265 198.5,265.5C 195.5,265.5 192.5,265.5 189.5,265.5C 189.198,262.941 189.532,260.607 190.5,258.5 Z"/></g>
<g><path style="opacity:1" fill="#f3f9fb" d="M 191.5,257.5 C 193.621,257.325 195.621,257.659 197.5,258.5C 197.5,258.833 197.5,259.167 197.5,259.5C 197.5,261.167 197.5,262.833 197.5,264.5C 195.167,264.5 192.833,264.5 190.5,264.5C 190.5,262.5 190.5,260.5 190.5,258.5C 190.5,257.833 190.833,257.5 191.5,257.5 Z"/></g>
<g><path style="opacity:1" fill="#6c9ece" d="M 116.5,257.5 C 117.117,257.611 117.617,257.944 118,258.5C 118.499,264.491 118.666,270.491 118.5,276.5C 117.167,276.5 115.833,276.5 114.5,276.5C 114.5,270.833 114.5,265.167 114.5,259.5C 115.167,264.681 115.833,270.015 116.5,275.5C 117.747,269.477 117.747,263.477 116.5,257.5 Z"/></g>
<g><path style="opacity:1" fill="#3b63c1" d="M 170.5,256.5 C 171,260.009 172,263.343 173.5,266.5C 173.215,268.288 173.548,269.955 174.5,271.5C 175.919,270.995 176.585,269.995 176.5,268.5C 176.433,267.041 176.766,265.708 177.5,264.5C 179.074,262.898 179.741,260.898 179.5,258.5C 180.158,257.602 180.824,256.602 181.5,255.5C 182.386,256.325 182.719,257.325 182.5,258.5C 182.167,259.833 181.833,261.167 181.5,262.5C 179.926,264.102 179.259,266.102 179.5,268.5C 178.531,270.663 177.698,272.996 177,275.5C 175.667,276.833 174.333,276.833 173,275.5C 172.018,272.071 170.852,268.738 169.5,265.5C 169.59,262.848 168.924,260.515 167.5,258.5C 167.5,258.167 167.5,257.833 167.5,257.5C 167.804,255.204 168.804,254.871 170.5,256.5 Z"/></g>
<g><path style="opacity:1" fill="#6ea5d3" d="M 173.5,266.5 C 174.268,267.263 174.768,268.263 175,269.5C 175.383,268.944 175.883,268.611 176.5,268.5C 176.585,269.995 175.919,270.995 174.5,271.5C 173.548,269.955 173.215,268.288 173.5,266.5 Z"/></g>
<g><path style="opacity:1" fill="#5f8ccb" d="M 179.5,258.5 C 179.741,260.898 179.074,262.898 177.5,264.5C 177.259,262.102 177.926,260.102 179.5,258.5 Z"/></g>
<g><path style="opacity:1" fill="#5497c5" d="M 136.5,258.5 C 137.49,264.31 137.823,270.31 137.5,276.5C 136.209,276.737 135.209,276.404 134.5,275.5C 136.45,270.265 137.117,264.598 136.5,258.5 Z"/></g>
<g><path style="opacity:1" fill="#4670be" d="M 198.5,256.5 C 197.662,256.842 197.328,257.508 197.5,258.5C 195.621,257.659 193.621,257.325 191.5,257.5C 192.952,256.698 194.618,256.198 196.5,256C 193.044,254.877 190.21,255.71 188,258.5C 187.333,264.167 187.333,269.833 188,275.5C 188.186,272.964 188.686,270.631 189.5,268.5C 189.5,270.833 189.5,273.167 189.5,275.5C 188.791,276.404 187.791,276.737 186.5,276.5C 186.334,270.158 186.5,263.825 187,257.5C 190.647,252.687 194.48,252.354 198.5,256.5 Z"/></g>
<g><path style="opacity:1" fill="#c5ddee" d="M 189.5,268.5 C 192.5,268.5 195.5,268.5 198.5,268.5C 198.5,270.833 198.5,273.167 198.5,275.5C 198.842,276.338 199.508,276.672 200.5,276.5C 199.458,277.791 198.292,277.791 197,276.5C 196.503,274.19 196.337,271.857 196.5,269.5C 194.5,269.5 192.5,269.5 190.5,269.5C 190.795,271.735 190.461,273.735 189.5,275.5C 189.5,273.167 189.5,270.833 189.5,268.5 Z"/></g>
<g><path style="opacity:1" fill="#6084bb" d="M 277.5,273.5 C 276.167,273.5 275.5,274.167 275.5,275.5C 274.596,274.791 274.263,273.791 274.5,272.5C 275.791,272.263 276.791,272.596 277.5,273.5 Z"/></g>
<g><path style="opacity:1" fill="#4a80c4" d="M 132.5,254.5 C 128.727,253.822 125.894,255.156 124,258.5C 123.333,264.167 123.333,269.833 124,275.5C 124.174,270.316 124.674,265.316 125.5,260.5C 125.5,265.833 125.5,271.167 125.5,276.5C 124.5,276.5 123.5,276.5 122.5,276.5C 122.334,270.158 122.5,263.825 123,257.5C 125.457,253.69 128.623,252.69 132.5,254.5 Z"/></g>
<g><path style="opacity:1" fill="#4863bf" d="M 286.5,254.5 C 284.492,256.083 282.159,257.083 279.5,257.5C 278.402,258.601 278.235,259.934 279,261.5C 281.57,263.869 284.404,265.869 287.5,267.5C 289.279,271.096 288.279,273.596 284.5,275C 281.518,275.498 278.518,275.665 275.5,275.5C 275.5,274.167 276.167,273.5 277.5,273.5C 279.527,273.662 281.527,273.495 283.5,273C 284.772,270.956 284.439,269.122 282.5,267.5C 276.806,266.412 274.306,263.079 275,257.5C 275.708,256.619 276.542,255.953 277.5,255.5C 280.43,254.701 283.43,254.368 286.5,254.5 Z"/></g>
<g><path style="opacity:0.82" fill="#53beed" d="M 17.5,270.5 C 19.7561,274.681 21.7561,279.014 23.5,283.5C 22.1667,282.167 20.8333,280.833 19.5,279.5C 19.5,279.167 19.5,278.833 19.5,278.5C 18.6295,275.888 17.9628,273.221 17.5,270.5 Z"/></g>
<g><path style="opacity:1" fill="#338fc2" d="M 263.5,282.5 C 266.685,282.02 269.519,282.686 272,284.5C 272.667,288.5 272.667,292.5 272,296.5C 269.525,299.524 266.525,300.19 263,298.5C 262.219,293.083 262.385,287.75 263.5,282.5 Z"/></g>
<g><path style="opacity:1" fill="#8fc7df" d="M 269.5,285.5 C 268.167,285.5 266.833,285.5 265.5,285.5C 265.5,286.5 265.5,287.5 265.5,288.5C 266.833,288.5 268.167,288.5 269.5,288.5C 268.081,289.451 266.415,289.784 264.5,289.5C 264.5,287.833 264.5,286.167 264.5,284.5C 266.415,284.216 268.081,284.549 269.5,285.5 Z"/></g>
<g><path style="opacity:0.999" fill="#d4f2f1" d="M 139.5,284.5 C 142.625,283.521 145.958,283.187 149.5,283.5C 149.5,284.5 149.5,285.5 149.5,286.5C 150.791,286.263 151.791,286.596 152.5,287.5C 151.167,287.5 149.833,287.5 148.5,287.5C 148.719,286.325 148.386,285.325 147.5,284.5C 146.511,288.107 146.177,291.774 146.5,295.5C 145.833,295.5 145.167,295.5 144.5,295.5C 143.526,293.915 142.026,292.915 140,292.5C 138.487,288.229 139.987,285.895 144.5,285.5C 142.955,284.548 141.288,284.215 139.5,284.5 Z"/></g>
<g><path style="opacity:1" fill="#f7fcfe" d="M 269.5,285.5 C 269.5,286.5 269.5,287.5 269.5,288.5C 268.167,288.5 266.833,288.5 265.5,288.5C 265.5,287.5 265.5,286.5 265.5,285.5C 266.833,285.5 268.167,285.5 269.5,285.5 Z"/></g>
<g><path style="opacity:0.184" fill="#b5e5fa" d="M 19.5,279.5 C 20.8333,280.833 22.1667,282.167 23.5,283.5C 28.2616,290.927 32.5949,298.594 36.5,306.5C 29.5863,298.351 23.9196,289.351 19.5,279.5 Z"/></g>
<g><path style="opacity:1" fill="#53c2c3" d="M 152.5,287.5 C 153.117,287.611 153.617,287.944 154,288.5C 154.497,290.81 154.663,293.143 154.5,295.5C 153.5,295.5 152.5,295.5 151.5,295.5C 150.833,287.5 150.167,287.5 149.5,295.5C 148.5,295.5 147.5,295.5 146.5,295.5C 146.177,291.774 146.511,288.107 147.5,284.5C 148.386,285.325 148.719,286.325 148.5,287.5C 149.833,287.5 151.167,287.5 152.5,287.5 Z"/></g>
<g><path style="opacity:1" fill="#4c99c5" d="M 237.5,282.5 C 238.5,282.5 239.5,282.5 240.5,282.5C 240.5,287.167 240.5,291.833 240.5,296.5C 242.604,296.201 244.604,296.534 246.5,297.5C 243.454,300.266 240.621,299.933 238,296.5C 237.501,291.845 237.334,287.179 237.5,282.5 Z"/></g>
<g><path style="opacity:1" fill="#80bed6" d="M 106.5,284.5 C 107.167,284.5 107.833,284.5 108.5,284.5C 108.5,285.167 108.5,285.833 108.5,286.5C 107.833,287.5 107.167,288.5 106.5,289.5C 102.5,289.5 98.5,289.5 94.5,289.5C 94.5,287.5 94.5,285.5 94.5,283.5C 98.7016,283.183 102.702,283.517 106.5,284.5 Z"/></g>
<g><path style="opacity:1" fill="#33ace2" d="M 106.5,284.5 C 106.5,285.833 106.5,287.167 106.5,288.5C 102.833,288.5 99.1667,288.5 95.5,288.5C 95.5,287.167 95.5,285.833 95.5,284.5C 99.1667,284.5 102.833,284.5 106.5,284.5 Z"/></g>
<g><path style="opacity:1" fill="#47bfc3" d="M 123.5,284.5 C 126.247,284.187 128.914,284.52 131.5,285.5C 130.675,286.386 129.675,286.719 128.5,286.5C 128.5,289.5 128.5,292.5 128.5,295.5C 127.5,295.5 126.5,295.5 125.5,295.5C 125.813,291.587 125.147,287.921 123.5,284.5 Z"/></g>
<g><path style="opacity:1" fill="#40bdc2" d="M 139.5,284.5 C 141.288,284.215 142.955,284.548 144.5,285.5C 139.987,285.895 138.487,288.229 140,292.5C 142.026,292.915 143.526,293.915 144.5,295.5C 137.818,296.175 135.318,293.175 137,286.5C 137.708,285.619 138.542,284.953 139.5,284.5 Z"/></g>
<g><path style="opacity:1" fill="#b3d2dc" d="M 194.5,284.5 C 203.986,283.506 213.652,283.173 223.5,283.5C 223.232,285.099 223.566,286.432 224.5,287.5C 224.5,289.833 224.5,292.167 224.5,294.5C 223.833,295.167 223.167,295.833 222.5,296.5C 222.784,294.585 222.451,292.919 221.5,291.5C 213.167,291.5 204.833,291.5 196.5,291.5C 194.824,292.183 194.157,293.517 194.5,295.5C 194.167,295.5 193.833,295.5 193.5,295.5C 194.036,292.302 193.369,289.635 191.5,287.5C 190.167,284.167 191.167,283.167 194.5,284.5 Z"/></g>
<g><path style="opacity:1" fill="#74b2d3" d="M 194.5,284.5 C 203.833,284.5 213.167,284.5 222.5,284.5C 222.5,286.167 222.5,287.833 222.5,289.5C 213.167,289.5 203.833,289.5 194.5,289.5C 194.5,287.833 194.5,286.167 194.5,284.5 Z"/></g>
<g><path style="opacity:1" fill="#20a2e0" d="M 195.5,285.5 C 204.167,285.5 212.833,285.5 221.5,285.5C 221.5,286.5 221.5,287.5 221.5,288.5C 212.833,288.5 204.167,288.5 195.5,288.5C 195.5,287.5 195.5,286.5 195.5,285.5 Z"/></g>
<g><path style="opacity:1" fill="#3b90bd" d="M 248.5,282.5 C 250.275,286.386 251.108,290.72 251,295.5C 252.667,296.833 254.333,296.833 256,295.5C 256.499,291.179 256.666,286.846 256.5,282.5C 257.5,282.5 258.5,282.5 259.5,282.5C 259.666,286.846 259.499,291.179 259,295.5C 255.982,300.265 252.649,300.598 249,296.5C 248.501,291.845 248.334,287.179 248.5,282.5 Z"/></g>
<g><path style="opacity:1" fill="#b9c3e1" d="M 94.5,289.5 C 98.5,289.5 102.5,289.5 106.5,289.5C 107.756,291.941 107.756,294.274 106.5,296.5C 106.784,294.585 106.451,292.919 105.5,291.5C 102.167,291.5 98.8333,291.5 95.5,291.5C 95.1667,291.5 94.8333,291.5 94.5,291.5C 94.5,290.833 94.5,290.167 94.5,289.5 Z"/></g>
<g><path style="opacity:1" fill="#61c5c9" d="M 156.5,287.5 C 159.044,287.104 161.211,287.771 163,289.5C 165.456,287.679 168.289,287.012 171.5,287.5C 171.5,290.167 171.5,292.833 171.5,295.5C 170.5,295.5 169.5,295.5 168.5,295.5C 167.833,287.5 167.167,287.5 166.5,295.5C 165.5,295.5 164.5,295.5 163.5,295.5C 163.167,291.5 162.833,291.5 162.5,295.5C 156.259,295.931 154.259,293.265 156.5,287.5 Z"/></g>
<g><path style="opacity:1" fill="#4bc0c2" d="M 108.5,284.5 C 109.496,284.414 110.329,284.748 111,285.5C 112.725,292.039 113.892,291.706 114.5,284.5C 115.675,284.281 116.675,284.614 117.5,285.5C 116.091,288.727 115.091,292.06 114.5,295.5C 113.178,295.67 112.011,295.337 111,294.5C 109.864,291.904 109.031,289.237 108.5,286.5C 108.5,285.833 108.5,285.167 108.5,284.5 Z"/></g>
<g><path style="opacity:1" fill="#41c4c1" d="M 119.5,284.5 C 120.787,285.871 121.453,287.705 121.5,290C 121.167,291.833 120.833,293.667 120.5,295.5C 119.511,291.893 119.177,288.226 119.5,284.5 Z"/></g>
<g><path style="opacity:1" fill="#56c0c7" d="M 191.5,287.5 C 193.369,289.635 194.036,292.302 193.5,295.5C 192.5,295.5 191.5,295.5 190.5,295.5C 190.194,292.615 190.527,289.948 191.5,287.5 Z"/></g>
<g><path style="opacity:1" fill="#d5ebf2" d="M 264.5,291.5 C 266.199,291.34 267.866,291.506 269.5,292C 270.833,293.333 270.833,294.667 269.5,296C 267.866,296.494 266.199,296.66 264.5,296.5C 264.5,294.833 264.5,293.167 264.5,291.5 Z"/></g>
<g><path style="opacity:1" fill="#5bc4c8" d="M 173.5,287.5 C 175.857,287.337 178.19,287.503 180.5,288C 181.071,289.205 181.738,290.372 182.5,291.5C 183.795,290.902 185.128,290.402 186.5,290C 185.376,289.751 184.376,289.251 183.5,288.5C 185.074,287.369 186.741,287.202 188.5,288C 189.435,290.381 189.768,292.881 189.5,295.5C 185.671,295.073 182.004,295.073 178.5,295.5C 177.833,287.5 177.167,287.5 176.5,295.5C 175.5,295.5 174.5,295.5 173.5,295.5C 173.5,292.833 173.5,290.167 173.5,287.5 Z"/></g>
<g><path style="opacity:1" fill="#3e93c2" d="M 224.5,294.5 C 224.5,292.167 224.5,289.833 224.5,287.5C 226.519,282.833 229.853,281.499 234.5,283.5C 226.101,285.152 224.434,289.319 229.5,296C 231.577,296.192 233.577,296.692 235.5,297.5C 233.956,299.446 231.956,299.946 229.5,299C 227.341,297.941 225.674,296.441 224.5,294.5 Z"/></g>
<g><path style="opacity:1" fill="#8896ce" d="M 94.5,291.5 C 94.8333,291.5 95.1667,291.5 95.5,291.5C 95.5,292.833 95.5,294.167 95.5,295.5C 97.8333,295.5 100.167,295.5 102.5,295.5C 103.5,295.5 104.5,295.5 105.5,295.5C 105.5,294.5 105.5,293.5 105.5,292.5C 105.5,292.167 105.5,291.833 105.5,291.5C 106.451,292.919 106.784,294.585 106.5,296.5C 102.5,296.5 98.5,296.5 94.5,296.5C 94.5,294.833 94.5,293.167 94.5,291.5 Z"/></g>
<g><path style="opacity:1" fill="#444bc4" d="M 105.5,292.5 C 105.5,293.5 105.5,294.5 105.5,295.5C 104.5,295.5 103.5,295.5 102.5,295.5C 100.631,294.835 98.6309,294.169 96.5,293.5C 99.4281,292.516 102.428,292.183 105.5,292.5 Z"/></g>
<g><path style="opacity:1" fill="#7179d4" d="M 95.5,291.5 C 98.8333,291.5 102.167,291.5 105.5,291.5C 105.5,291.833 105.5,292.167 105.5,292.5C 102.428,292.183 99.4281,292.516 96.5,293.5C 98.6309,294.169 100.631,294.835 102.5,295.5C 100.167,295.5 97.8333,295.5 95.5,295.5C 95.5,294.167 95.5,292.833 95.5,291.5 Z"/></g>
<g><path style="opacity:1" fill="#7ab3d7" d="M 196.5,291.5 C 196.5,291.833 196.5,292.167 196.5,292.5C 195.596,293.209 195.263,294.209 195.5,295.5C 201.5,295.5 207.5,295.5 213.5,295.5C 215.833,295.5 218.167,295.5 220.5,295.5C 221.434,294.432 221.768,293.099 221.5,291.5C 222.451,292.919 222.784,294.585 222.5,296.5C 212.985,296.827 203.652,296.494 194.5,295.5C 194.157,293.517 194.824,292.183 196.5,291.5 Z"/></g>
<g><path style="opacity:1" fill="#6988e0" d="M 196.5,292.5 C 201.927,294.146 207.594,295.146 213.5,295.5C 207.5,295.5 201.5,295.5 195.5,295.5C 195.263,294.209 195.596,293.209 196.5,292.5 Z"/></g>
<g><path style="opacity:1" fill="#404ec2" d="M 196.5,292.5 C 204.5,292.5 212.5,292.5 220.5,292.5C 220.5,293.5 220.5,294.5 220.5,295.5C 218.167,295.5 215.833,295.5 213.5,295.5C 207.594,295.146 201.927,294.146 196.5,292.5 Z"/></g>
<g><path style="opacity:1" fill="#7fa4e7" d="M 196.5,292.5 C 196.5,292.167 196.5,291.833 196.5,291.5C 204.833,291.5 213.167,291.5 221.5,291.5C 221.768,293.099 221.434,294.432 220.5,295.5C 220.5,294.5 220.5,293.5 220.5,292.5C 212.5,292.5 204.5,292.5 196.5,292.5 Z"/></g>
<g><path style="opacity:0.694" fill="#fddd82" d="M 354.5,293.5 C 354.5,294.5 354.5,295.5 354.5,296.5C 351.884,299.455 349.218,302.455 346.5,305.5C 348.673,301.148 351.34,297.148 354.5,293.5 Z"/></g>
<g><path style="opacity:0.031" fill="#fff7dc" d="M 354.5,296.5 C 350.573,303.42 345.907,309.753 340.5,315.5C 341.766,312.245 343.432,309.245 345.5,306.5C 345.5,305.833 345.833,305.5 346.5,305.5C 349.218,302.455 351.884,299.455 354.5,296.5 Z"/></g>
<g><path style="opacity:0.796" fill="#fdda7c" d="M 345.5,306.5 C 343.432,309.245 341.766,312.245 340.5,315.5C 339.833,315.5 339.167,315.5 338.5,315.5C 339.694,311.637 342.027,308.637 345.5,306.5 Z"/></g>
<g><path style="opacity:0.255" fill="#b2e4fb" d="M 36.5,307.5 C 37.675,307.281 38.675,307.614 39.5,308.5C 42.9821,312.623 45.9821,316.956 48.5,321.5C 44.1549,317.153 40.1549,312.486 36.5,307.5 Z"/></g>
<g><path style="opacity:0.22" fill="#ffefc2" d="M 338.5,315.5 C 339.167,315.5 339.833,315.5 340.5,315.5C 334.869,322.798 328.536,329.465 321.5,335.5C 319.973,335.427 318.973,336.094 318.5,337.5C 315.71,341.628 312.043,344.628 307.5,346.5C 310.167,343.833 312.833,341.167 315.5,338.5C 323.5,331.167 331.167,323.5 338.5,315.5 Z"/></g>
<g><path style="opacity:0.902" fill="#68c5f0" d="M 48.5,321.5 C 56.7895,325.838 63.7895,331.838 69.5,339.5C 68.8333,339.5 68.1667,339.5 67.5,339.5C 64.7689,335.766 61.4356,332.766 57.5,330.5C 54.1667,327.833 51.1667,324.833 48.5,321.5 Z"/></g>
<g><path style="opacity:0.149" fill="#c9eefd" d="M 57.5,330.5 C 61.4356,332.766 64.7689,335.766 67.5,339.5C 63.5644,337.234 60.2311,334.234 57.5,330.5 Z"/></g>
<g><path style="opacity:0.004" fill="#fffdea" d="M 321.5,335.5 C 321.027,336.906 320.027,337.573 318.5,337.5C 318.973,336.094 319.973,335.427 321.5,335.5 Z"/></g>
<g><path style="opacity:0.22" fill="#c4eefc" d="M 67.5,339.5 C 68.1667,339.5 68.8333,339.5 69.5,339.5C 70.5,340.833 71.5,342.167 72.5,343.5C 70.2512,342.92 68.5846,341.587 67.5,339.5 Z"/></g>
<g><path style="opacity:0.996" fill="#f9d062" d="M 266.5,338.5 C 264.685,341.407 262.019,342.741 258.5,342.5C 261.035,340.983 263.702,339.65 266.5,338.5 Z"/></g>
<g><path style="opacity:0.639" fill="#fede87" d="M 315.5,338.5 C 312.833,341.167 310.167,343.833 307.5,346.5C 305.596,346.738 304.262,347.738 303.5,349.5C 302.5,349.5 301.5,349.5 300.5,349.5C 305.214,345.454 310.214,341.788 315.5,338.5 Z"/></g>
<g><path style="opacity:1" fill="#f8cb50" d="M 258.5,342.5 C 257.12,344.369 255.287,345.702 253,346.5C 246.897,348.48 240.73,350.147 234.5,351.5C 242.44,348.518 250.44,345.518 258.5,342.5 Z"/></g>
<g><path style="opacity:0.008" fill="#fffaeb" d="M 307.5,346.5 C 306.738,348.262 305.404,349.262 303.5,349.5C 304.262,347.738 305.596,346.738 307.5,346.5 Z"/></g>
<g><path style="opacity:0.627" fill="#fcdd7f" d="M 300.5,349.5 C 298.704,351.9 296.37,353.567 293.5,354.5C 295.296,352.1 297.63,350.433 300.5,349.5 Z"/></g>
<g><path style="opacity:1" fill="#fef9dc" d="M 220.5,353.5 C 213.065,355.214 205.398,356.214 197.5,356.5C 197.611,355.883 197.944,355.383 198.5,355C 205.823,354.279 213.156,353.779 220.5,353.5 Z"/></g>
<g><path style="opacity:0.455" fill="#ffecb7" d="M 300.5,349.5 C 301.5,349.5 302.5,349.5 303.5,349.5C 278.559,367.932 250.559,378.932 219.5,382.5C 221.167,381.833 222.833,381.167 224.5,380.5C 249.249,375.937 272.249,367.271 293.5,354.5C 296.37,353.567 298.704,351.9 300.5,349.5 Z"/></g>
<g><path style="opacity:0.369" fill="#a2def8" d="M 72.5,343.5 C 73.8734,343.343 75.2068,343.51 76.5,344C 88.4384,353.799 101.438,361.799 115.5,368C 125.867,371.566 136.201,375.066 146.5,378.5C 143.833,378.167 141.167,377.833 138.5,377.5C 113.911,370.874 91.9108,359.541 72.5,343.5 Z"/></g>
<g><path style="opacity:0.03" fill="#f0fcfe" d="M 138.5,377.5 C 141.167,377.833 143.833,378.167 146.5,378.5C 150.68,380.336 155.013,381.669 159.5,382.5C 151.976,382.651 144.976,380.984 138.5,377.5 Z"/></g>
<g><path style="opacity:0.549" fill="#a4e2fb" d="M 146.5,378.5 C 154.804,379.426 162.804,381.093 170.5,383.5C 167.833,383.5 165.167,383.5 162.5,383.5C 161.791,382.596 160.791,382.263 159.5,382.5C 155.013,381.669 150.68,380.336 146.5,378.5 Z"/></g>
<g><path style="opacity:0.486" fill="#fed66c" d="M 224.5,380.5 C 222.833,381.167 221.167,381.833 219.5,382.5C 219.5,382.833 219.5,383.167 219.5,383.5C 214.167,383.5 208.833,383.5 203.5,383.5C 210.238,381.654 217.238,380.654 224.5,380.5 Z"/></g>
</svg>
